<?xml version="1.0" encoding="UTF-8" standalone="no"?>
<!DOCTYPE svg PUBLIC "-//W3C//DTD SVG 1.1//EN" "http://www.w3.org/Graphics/SVG/1.1/DTD/svg11.dtd">
<svg xmlns="http://www.w3.org/2000/svg" xmlns:xlink="http://www.w3.org/1999/xlink" version="1.1" width="612pt" height="792pt" viewBox="0 0 612 792">
<g enable-background="new">
<g>
<clipPath id="cp0">
<path transform="matrix(1.34205,0,0,-1.34205,0,765)" d="M 0 0 L 459 0 L 459 549.9058 L 0 549.9058 Z "/>
</clipPath>
<g clip-path="url(#cp0)">
<clipPath id="cp1">
<path transform="matrix(.9998272,0,0,.9998272,0,26.998902)" d="M 0 0 L 616.1127 0 L 616.1127 736.9233 L 0 736.9233 Z "/>
</clipPath>
<g clip-path="url(#cp1)">
<path transform="matrix(.9998272,0,0,.9998272,0,26.998902)" d="M 0 0 L 616.1127 0 L 616.1127 736.9233 L 0 736.9233 Z " fill="#ffffff"/>
</g>
<clipPath id="cp2">
<path transform="matrix(.9998272,0,0,.9998272,0,26.998902)" d="M 0 0 L 612.00198 0 L 612.00198 712.00198 L 0 712.00198 Z "/>
</clipPath>
<g clip-path="url(#cp2)">
<path transform="matrix(.9998272,0,0,.9998272,0,26.998902)" d="M 0 0 L 612.00198 0 L 612.00198 712.00198 L 0 712.00198 Z " fill="#ffffff"/>
</g>
<clipPath id="cp3">
<path transform="matrix(.9998272,0,0,.9998272,0,26.998902)" d="M 94.00168 5.0021 L 148.0023 5.0021 L 148.0023 59.00273 L 94.00168 59.00273 Z "/>
</clipPath>
<g clip-path="url(#cp3)">
<path transform="matrix(.7498704,0,0,.7498704,93.98376,31.998038)" d="M 70.6678 35.99972 C 70.6678 55.14821 55.14767 70.66835 35.99918 70.66835 C 16.85069 70.66835 1.33055 55.14821 1.33055 35.99972 C 1.33055 16.85123 16.85069 1.3311 35.99918 1.3311 C 55.14767 1.3311 70.6678 16.85123 70.6678 35.99972 " fill="#ffffff"/>
<path transform="matrix(.7498704,0,0,.7498704,93.98376,31.998038)" stroke-width="1" stroke-linecap="butt" stroke-miterlimit="4" stroke-linejoin="miter" fill="none" stroke="#0187de" d="M 70.6678 35.99972 C 70.6678 55.14821 55.14767 70.66835 35.99918 70.66835 C 16.85069 70.66835 1.33055 55.14821 1.33055 35.99972 C 1.33055 16.85123 16.85069 1.3311 35.99918 1.3311 C 55.14767 1.3311 70.6678 16.85123 70.6678 35.99972 "/>
<text xml:space="preserve" transform="matrix(.99982479 0 0 .99982479 102.23233 44.99579)" font-size="25" font-family="ArialMT"><tspan y="23" x="0 16.675">PM</tspan></text>
</g>
<clipPath id="cp4">
<path transform="matrix(.9998272,0,0,.9998272,0,26.998902)" d="M 0 0 L 616.1127 0 L 616.1127 736.9233 L 0 736.9233 Z "/>
</clipPath>
<g clip-path="url(#cp4)">
<clipPath id="cp5">
<path transform="matrix(.9998272,0,0,.9998272,0,26.998902)" d="M 158.9975 -2.99916 L 273.99858 -2.99916 L 273.99858 43.00021 L 158.9975 43.00021 Z "/>
</clipPath>
<g clip-path="url(#cp5)">
<text fill="#0187de" xml:space="preserve" transform="matrix(.9998272 0 0 .9998272 0 26.998902)" font-size="34" font-family="ArialMT"><tspan y="32" x="164 186.678 205.582 215 226.356 233.904 250.904">Patrick</tspan></text>
</g>
<clipPath id="cp6">
<path transform="matrix(.9998272,0,0,.9998272,0,26.998902)" d="M 270.9994 -2.99916 L 479.9969 -2.99916 L 479.9969 43.00021 L 270.9994 43.00021 Z "/>
</clipPath>
<g clip-path="url(#cp6)">
<text fill="#0187de" xml:space="preserve" transform="matrix(.9998272 0 0 .9998272 0 26.998902)" font-size="34" font-family="ArialMT"><tspan y="32" x="276.9125 305.2345 324.1385 335.49449 352.49449 369.49449 388.39848 395.94648 414.85047 439.43247 446.98048 456.39848">Marschlowitz</tspan></text>
</g>
<clipPath id="cp7">
<path transform="matrix(.9998272,0,0,.9998272,0,26.998902)" d="M 158.9975 36.00042 L 245.99939 36.00042 L 245.99939 58.00126 L 158.9975 58.00126 Z "/>
</clipPath>
<g clip-path="url(#cp7)">
<text fill="#231f20" xml:space="preserve" transform="matrix(.9998272 0 0 .9998272 0 26.998902)" font-size="11" font-family="ArialMT"><tspan y="50.5" x="164 167.652 173.76799 179.87299 185.98899 189.64098 192.68798 198.79297 204.90897 211.01396 214.66596 220.78195 226.88695 233.00295">(951) 233-5058</tspan></text>
</g>
<clipPath id="cp8">
<path transform="matrix(.9998272,0,0,.9998272,0,26.998902)" d="M 233.9975 36.00042 L 251.99771 36.00042 L 251.99771 58.00126 L 233.9975 58.00126 Z "/>
</clipPath>
<g clip-path="url(#cp8)">
<text fill="#231f20" xml:space="preserve" transform="matrix(.9998272 0 0 .9998272 0 26.998902)" font-size="11" font-family="ArialMT"><tspan y="50.5" x="239.1125 242.1485 244.9755"> | </tspan></text>
</g>
<clipPath id="cp9">
<path transform="matrix(.9998272,0,0,.9998272,0,26.998902)" d="M 241.99877 36.00042 L 265.99729 36.00042 L 265.99729 58.00126 L 241.99877 58.00126 Z "/>
</clipPath>
<g clip-path="url(#cp9)">
<text fill="#231f20" xml:space="preserve" transform="matrix(.9998272 0 0 .9998272 0 26.998902)" font-size="11" font-family="Arial" font-weight="bold"><tspan y="50.5" x="247.975 255.31201 258.975">E: </tspan></text>
</g>
<clipPath id="cp10">
<path transform="matrix(.9998272,0,0,.9998272,0,26.998902)" d="M 255.99834 36.00042 L 388.9996 36.00042 L 388.9996 58.00126 L 255.99834 58.00126 Z "/>
</clipPath>
<g clip-path="url(#cp10)">
<text fill="#231f20" xml:space="preserve" transform="matrix(.9998272 0 0 .9998272 0 26.998902)" font-size="11" font-family="ArialMT"><tspan y="50.5" x="261.975 268.091 274.207 277.254 285.19599 291.31199 297.42799 303.54399 309.65998 315.15998 321.27598 332.44099 338.55699 347.71998 353.82499 356.26698 358.70896 361.75596 367.25596 373.37196">patwebdev1@gmail.com</tspan></text>
</g>
<clipPath id="cp11">
<path transform="matrix(.9998272,0,0,.9998272,0,26.998902)" d="M 158.9975 50 L 206.99982 50 L 206.99982 72.00084 L 158.9975 72.00084 Z "/>
</clipPath>
<g clip-path="url(#cp11)">
<text fill="#231f20" xml:space="preserve" transform="matrix(.9998272 0 0 .9998272 0 26.998902)" font-size="11" font-family="ArialMT"><tspan y="64.5" x="164 172.547 176.20999 182.32599 188.44199 194.54698">Orange</tspan></text>
</g>
<clipPath id="cp12">
<path transform="matrix(.9998272,0,0,.9998272,0,26.998902)" d="M 194.99793 50 L 211.00045 50 L 211.00045 72.00084 L 194.99793 72.00084 Z "/>
</clipPath>
<g clip-path="url(#cp12)">
<text fill="#231f20" xml:space="preserve" transform="matrix(.9998272 0 0 .9998272 0 26.998902)" font-size="11" font-family="ArialMT"><tspan y="64.5" x="200.6625 203.7205">, </tspan></text>
</g>
<clipPath id="cp13">
<path transform="matrix(.9998272,0,0,.9998272,0,26.998902)" d="M 201.00148 50 L 227.99918 50 L 227.99918 72.00084 L 201.00148 72.00084 Z "/>
</clipPath>
<g clip-path="url(#cp13)">
<text fill="#231f20" xml:space="preserve" transform="matrix(.9998272 0 0 .9998272 0 26.998902)" font-size="11" font-family="ArialMT"><tspan y="64.5" x="206.7125 214.6655">CA</tspan></text>
</g>
<clipPath id="cp14">
<path transform="matrix(.9998272,0,0,.9998272,0,26.998902)" d="M 219.99793 50 L 261.99668 50 L 261.99668 72.00084 L 219.99793 72.00084 Z "/>
</clipPath>
<g clip-path="url(#cp14)">
<text fill="#231f20" xml:space="preserve" transform="matrix(.9998272 0 0 .9998272 0 26.998902)" font-size="11" font-family="ArialMT"><tspan y="64.5" x="225 231.116 237.221 243.33699 249.45299">92868</tspan></text>
</g>
<clipPath id="cp15">
<path transform="matrix(.9998272,0,0,.9998272,0,26.998902)" d="M 33.99749 87.99812 L 139.99582 87.99812 L 139.99582 111.000438 L 33.99749 111.000438 Z "/>
</clipPath>
<g clip-path="url(#cp15)">
<text fill="#0187de" xml:space="preserve" transform="matrix(.9998272 0 0 .9998272 0 26.998902)" font-size="12" font-family="Arial" font-weight="bold"><tspan y="103.5" x="39.35 47.354 56.030004 65.354007 72.686008 80.678 88.682 96.673999 100.009998 109.33399 118.009998 126.686">PROFESSIONAL</tspan></text>
</g>
<clipPath id="cp16">
<path transform="matrix(.9998272,0,0,.9998272,0,26.998902)" d="M 66.99875 102.99917 L 140.00107 102.99917 L 140.00107 126.00148 L 66.99875 126.00148 Z "/>
</clipPath>
<g clip-path="url(#cp16)">
<text fill="#0187de" xml:space="preserve" transform="matrix(.9998272 0 0 .9998272 0 26.998902)" font-size="12" font-family="Arial" font-weight="bold"><tspan y="118.5" x="72.45 80.381999 88.974 98.898 108.82201 117.41401 126.00601">SUMMARY</tspan></text>
</g>
<clipPath id="cp17">
<path transform="matrix(.9998272,0,0,.9998272,0,26.998902)" d="M 148.99854 91.99875 L 150 91.99875 L 150 147.99707 L 148.99854 147.99707 Z "/>
</clipPath>
<g clip-path="url(#cp17)">
<path transform="matrix(.9998272,0,0,.9998272,0,26.998902)" d="M 148.99854 91.99875 L 150 91.99875 L 150 147.99707 L 148.99854 147.99707 Z " fill="#979797"/>
</g>
<clipPath id="cp18">
<path transform="matrix(.9998272,0,0,.9998272,0,26.998902)" d="M 158.9975 87.99812 L 570.9994 87.99812 L 570.9994 109.99896 L 158.9975 109.99896 Z "/>
</clipPath>
<g clip-path="url(#cp18)">
<text fill="#231f20" xml:space="preserve" transform="matrix(.9998272 0 0 .9998272 0 26.998902)" font-size="11" font-family="ArialMT"><tspan y="102.5" x="164 171.931 178.047 185.978 188.409 193.898 196.93399 203.04999 206.70198 212.80698 218.91197 225.01697 231.13297 234.16896 240.27396 246.37895 249.41495 257.35694 263.46195 269.56697 272.60298 278.71897 284.82398 290.313 296.418 298.849 304.965 311.07 317.17503 320.82704 323.86305 329.97904 333.01506 336.05107 342.15608 345.80809 348.25007 354.35508 360.46009 363.4961 369.6121 375.7171 378.7531 384.85813 390.96315 396.46315 398.89414 404.99916 410.48817 419.64018 422.68717 428.79219 434.8972 441.0022 444.0492 450.1542 456.25923 462.36424 468.46925 472.13224 477.62126 480.65727 486.76228 492.86729 498.98329 501.41429 507.5193 513.6243 516.66036 522.77639 525.8124 528.8484 534.3374 540.4534 544.10549 546.5365 552.64157 558.7466">Newly graduated web developer offering enthusiasm and understanding of various</tspan></text>
</g>
<clipPath id="cp19">
<path transform="matrix(.9998272,0,0,.9998272,0,26.998902)" d="M 158.9975 101.9977 L 564.99588 101.9977 L 564.99588 123.99854 L 158.9975 123.99854 Z "/>
</clipPath>
<g clip-path="url(#cp19)">
<text fill="#231f20" xml:space="preserve" transform="matrix(.9998272 0 0 .9998272 0 26.998902)" font-size="11" font-family="ArialMT"><tspan y="116.5" x="164 167.047 173.152 178.652 184.75699 190.86199 196.97798 199.40898 205.52498 211.62998 214.07198 220.17697 225.66597 228.71297 231.74897 239.69097 245.79596 251.28496 254.33196 259.82099 265.93699 268.973 272.02 275.056 281.161 284.208 290.31303 296.42903 301.91804 308.02305 310.46504 316.57005 322.68605 325.72206 328.75807 334.87406 340.36308 346.47908 352.58409 358.70008 361.13108 367.23609 373.35209 378.8411 381.8881 387.9931 390.4241 396.5401 402.0291 408.1451 413.63414 416.68113 419.71714 425.82215 431.93815 438.04316 441.09016 449.02116 451.45216 453.89414 456.32514 458.76713 464.87214 470.97715 474.02415 477.06016 483.17616 486.21217 488.65415 494.75917 500.86418 504.52717 510.63218 513.6792 519.78427 525.8893 531.3893 534.4253 540.5413 542.97238 549.0884 555.1934">technologies. Has yet to develop technology biases, and willing to learn anything.</tspan></text>
</g>
<clipPath id="cp20">
<path transform="matrix(.9998272,0,0,.9998272,0,26.998902)" d="M 158.9975 116.00253 L 544.9979 116.00253 L 544.9979 138.00337 L 158.9975 138.00337 Z "/>
</clipPath>
<g clip-path="url(#cp20)">
<text fill="#231f20" xml:space="preserve" transform="matrix(.9998272 0 0 .9998272 0 26.998902)" font-size="11" font-family="ArialMT"><tspan y="130.5" x="164 170.105 176.221 182.32599 187.82599 190.25699 196.36199 202.47798 205.51398 208.56098 214.66597 217.70197 220.14397 226.24897 228.67996 234.79596 237.83196 243.94795 250.05295 253.08895 259.20497 262.85697 268.96199 275.07798 281.18299 283.62498 289.11399 295.219 298.266 300.697 306.813 312.918 315.954 323.896 330.001 336.10603 339.769 345.87403 348.92103 355.02604 361.13105 367.24705 373.35206 377.01506 380.05107 386.15608 392.27207 394.70307 397.73908 403.23908 406.2751 409.32209 415.4271 419.0791 422.1261 428.2311 431.88313 437.9991 445.9301 448.9771 455.08213 458.11814 464.23414 470.33915 476.45515 479.49116 485.59617 489.25917 495.36418 498.40019 504.51618 510.0052 515.5052 517.9362 524.04129 530.1573 536.2623">Looking to join an organization where opportunity for growth and professional</tspan></text>
</g>
<clipPath id="cp21">
<path transform="matrix(.9998272,0,0,.9998272,0,26.998902)" d="M 158.9975 130.0021 L 298.99855 130.0021 L 298.99855 152.00295 L 158.9975 152.00295 Z "/>
</clipPath>
<g clip-path="url(#cp21)">
<text fill="#231f20" xml:space="preserve" transform="matrix(.9998272 0 0 .9998272 0 26.998902)" font-size="11" font-family="ArialMT"><tspan y="144.5" x="164 170.116 176.221 181.721 187.82599 190.26799 196.37299 202.48899 211.64098 217.75698 223.87297 226.90897 229.95597 232.38697 237.88697 240.92296 247.03896 256.19099 262.30699 265.95899 272.07499 277.57499 283.68 289.796">development is embraced.</tspan></text>
</g>
</g>
<clipPath id="cp22">
<path transform="matrix(.9998272,0,0,.9998272,0,26.998902)" d="M 148.99854 148.00232 L 150 148.00232 L 150 170.00316 L 148.99854 170.00316 Z "/>
</clipPath>
<g clip-path="url(#cp22)">
<path transform="matrix(.9998272,0,0,.9998272,0,26.998902)" d="M 148.99854 148.00232 L 150 148.00232 L 150 170.00316 L 148.99854 170.00316 Z " fill="#979797"/>
</g>
<clipPath id="cp23">
<path transform="matrix(.9998272,0,0,.9998272,0,26.998902)" d="M 0 0 L 616.1127 0 L 616.1127 736.9233 L 0 736.9233 Z "/>
</clipPath>
<g clip-path="url(#cp23)">
<clipPath id="cp24">
<path transform="matrix(.9998272,0,0,.9998272,0,26.998902)" d="M 86.00043 154.00064 L 140.00106 154.00064 L 140.00106 177.00295 L 86.00043 177.00295 Z "/>
</clipPath>
<g clip-path="url(#cp24)">
<text fill="#0187de" xml:space="preserve" transform="matrix(.9998272 0 0 .9998272 0 26.998902)" font-size="12" font-family="Arial" font-weight="bold"><tspan y="169.5" x="91.35 99.354 108.018 111.354 118.673999 126.006">SKILLS</tspan></text>
</g>
<clipPath id="cp25">
<path transform="matrix(.9998272,0,0,.9998272,0,26.998902)" d="M 148.99854 158.00127 L 150 158.00127 L 150 241.99875 L 148.99854 241.99875 Z "/>
</clipPath>
<g clip-path="url(#cp25)">
<path transform="matrix(.9998272,0,0,.9998272,0,26.998902)" d="M 148.99854 158.00127 L 150 158.00127 L 150 241.99875 L 148.99854 241.99875 Z " fill="#979797"/>
</g>
<clipPath id="cp26">
<path transform="matrix(.9998272,0,0,.9998272,0,26.998902)" d="M 184.99897 154.00064 L 245.99939 154.00064 L 245.99939 176.00148 L 184.99897 176.00148 Z "/>
</clipPath>
<g clip-path="url(#cp26)">
<text fill="#231f20" xml:space="preserve" transform="matrix(.9998272 0 0 .9998272 0 26.998902)" font-size="11" font-family="ArialMT"><tspan y="168.5" x="190 195.5 201.616 207.116 213.232 218.732 224.232 227.89499 230.33699 236.45299">Javascript</tspan></text>
</g>
<path transform="matrix(.9998272,0,0,.9998272,0,26.998902)" d="M 174.5019 163.2498 L 174.5019 163.2498 C 175.603 163.2498 176.49959 164.1464 176.49959 165.2475 C 176.49959 166.35384 175.603 167.25043 174.5019 167.25043 C 173.39557 167.25043 172.49897 166.35384 172.49897 165.2475 C 172.49897 164.1464 173.39557 163.2498 174.5019 163.2498 Z " fill="#231f20"/>
<clipPath id="cp27">
<path transform="matrix(.9998272,0,0,.9998272,0,26.998902)" d="M 184.99897 168.00022 L 230.99834 168.00022 L 230.99834 190.00106 L 184.99897 190.00106 Z "/>
</clipPath>
<g clip-path="url(#cp27)">
<text fill="#231f20" xml:space="preserve" transform="matrix(.9998272 0 0 .9998272 0 26.998902)" font-size="11" font-family="ArialMT"><tspan y="182.5" x="190 197.337 202.837 205.884 212 218.116">Python</tspan></text>
</g>
<path transform="matrix(.9998272,0,0,.9998272,0,26.998902)" d="M 174.5019 177.24938 L 174.5019 177.24938 C 175.603 177.24938 176.49959 178.146 176.49959 179.25232 C 176.49959 180.35341 175.603 181.25002 174.5019 181.25002 C 173.39557 181.25002 172.49897 180.35341 172.49897 179.25232 C 172.49897 178.146 173.39557 177.24938 174.5019 177.24938 Z " fill="#231f20"/>
<clipPath id="cp28">
<path transform="matrix(.9998272,0,0,.9998272,0,26.998902)" d="M 184.99897 181.9998 L 225.00002 181.9998 L 225.00002 204.00064 L 184.99897 204.00064 Z "/>
</clipPath>
<g clip-path="url(#cp28)">
<text fill="#231f20" xml:space="preserve" transform="matrix(.9998272 0 0 .9998272 0 26.998902)" font-size="11" font-family="ArialMT"><tspan y="196.5" x="190 197.942 204.058 210.174 215.685">React</tspan></text>
</g>
<path transform="matrix(.9998272,0,0,.9998272,0,26.998902)" d="M 174.5019 191.24897 L 174.5019 191.24897 C 175.603 191.24897 176.49959 192.14557 176.49959 193.2519 C 176.49959 194.353 175.603 195.24959 174.5019 195.24959 C 173.39557 195.24959 172.49897 194.353 172.49897 193.2519 C 172.49897 192.14557 173.39557 191.24897 174.5019 191.24897 Z " fill="#231f20"/>
<clipPath id="cp29">
<path transform="matrix(.9998272,0,0,.9998272,0,26.998902)" d="M 184.99897 195.99939 L 227.99918 195.99939 L 227.99918 218.00023 L 184.99897 218.00023 Z "/>
</clipPath>
<g clip-path="url(#cp29)">
<text fill="#231f20" xml:space="preserve" transform="matrix(.9998272 0 0 .9998272 0 26.998902)" font-size="11" font-family="ArialMT"><tspan y="210.5" x="190 197.942 204.058 210.174 216.29">Redux</tspan></text>
</g>
<path transform="matrix(.9998272,0,0,.9998272,0,26.998902)" d="M 174.5019 205.24855 L 174.5019 205.24855 C 175.603 205.24855 176.49959 206.14516 176.49959 207.25148 C 176.49959 208.35257 175.603 209.24918 174.5019 209.24918 C 173.39557 209.24918 172.49897 208.35257 172.49897 207.25148 C 172.49897 206.14516 173.39557 205.24855 174.5019 205.24855 Z " fill="#231f20"/>
<clipPath id="cp30">
<path transform="matrix(.9998272,0,0,.9998272,0,26.998902)" d="M 184.99897 209.99897 L 250.00002 209.99897 L 250.00002 231.9998 L 184.99897 231.9998 Z "/>
</clipPath>
<g clip-path="url(#cp30)">
<text fill="#231f20" xml:space="preserve" transform="matrix(.9998272 0 0 .9998272 0 26.998902)" font-size="11" font-family="ArialMT"><tspan y="224.5" x="190 199.163 205.27899 208.33699 214.45299 218.11598 220.55799 226.67398 229.11598 232.78998 240.73198">Material-UI</tspan></text>
</g>
<path transform="matrix(.9998272,0,0,.9998272,0,26.998902)" d="M 174.5019 219.24813 L 174.5019 219.24813 C 175.603 219.24813 176.49959 220.14473 176.49959 221.25106 C 176.49959 222.35216 175.603 223.24877 174.5019 223.24877 C 173.39557 223.24877 172.49897 222.35216 172.49897 221.25106 C 172.49897 220.14473 173.39557 219.24813 174.5019 219.24813 Z " fill="#231f20"/>
<clipPath id="cp31">
<path transform="matrix(.9998272,0,0,.9998272,0,26.998902)" d="M 184.99897 223.99855 L 233.9975 223.99855 L 233.9975 245.99939 L 184.99897 245.99939 Z "/>
</clipPath>
<g clip-path="url(#cp31)">
<text fill="#231f20" xml:space="preserve" transform="matrix(.9998272 0 0 .9998272 0 26.998902)" font-size="11" font-family="ArialMT"><tspan y="238.5" x="190 197.942 204.058 210.174 215.674 221.79">Canvas</tspan></text>
</g>
<path transform="matrix(.9998272,0,0,.9998272,0,26.998902)" d="M 174.5019 233.24771 L 174.5019 233.24771 C 175.603 233.24771 176.49959 234.14432 176.49959 235.25066 C 176.49959 236.35175 175.603 237.24834 174.5019 237.24834 C 173.39557 237.24834 172.49897 236.35175 172.49897 235.25066 C 172.49897 234.14432 173.39557 233.24771 174.5019 233.24771 Z " fill="#231f20"/>
<clipPath id="cp32">
<path transform="matrix(.9998272,0,0,.9998272,0,26.998902)" d="M 397.0009 154.00064 L 445.99943 154.00064 L 445.99943 176.00148 L 397.0009 176.00148 Z "/>
</clipPath>
<g clip-path="url(#cp32)">
<text fill="#231f20" xml:space="preserve" transform="matrix(.9998272 0 0 .9998272 0 26.998902)" font-size="11" font-family="ArialMT"><tspan y="168.5" x="402 409.326 415.442 421.55799 427.05799 433.17399">Apache</tspan></text>
</g>
<path transform="matrix(.9998272,0,0,.9998272,0,26.998902)" d="M 386.49858 163.2498 L 386.49858 163.2498 C 387.6049 163.2498 388.5015 164.1464 388.5015 165.2475 C 388.5015 166.35384 387.6049 167.25043 386.49858 167.25043 C 385.39747 167.25043 384.5009 166.35384 384.5009 165.2475 C 384.5009 164.1464 385.39747 163.2498 386.49858 163.2498 Z " fill="#231f20"/>
<clipPath id="cp33">
<path transform="matrix(.9998272,0,0,.9998272,0,26.998902)" d="M 397.0009 168.00022 L 433.0013 168.00022 L 433.0013 190.00106 L 397.0009 190.00106 Z "/>
</clipPath>
<g clip-path="url(#cp33)">
<text fill="#231f20" xml:space="preserve" transform="matrix(.9998272 0 0 .9998272 0 26.998902)" font-size="11" font-family="ArialMT"><tspan y="182.5" x="402 409.13899 419.31398">AWS</tspan></text>
</g>
<path transform="matrix(.9998272,0,0,.9998272,0,26.998902)" d="M 386.49858 177.24938 L 386.49858 177.24938 C 387.6049 177.24938 388.5015 178.146 388.5015 179.25232 C 388.5015 180.35341 387.6049 181.25002 386.49858 181.25002 C 385.39747 181.25002 384.5009 180.35341 384.5009 179.25232 C 384.5009 178.146 385.39747 177.24938 386.49858 177.24938 Z " fill="#231f20"/>
<clipPath id="cp34">
<path transform="matrix(.9998272,0,0,.9998272,0,26.998902)" d="M 397.0009 181.9998 L 456.99986 181.9998 L 456.99986 204.00064 L 397.0009 204.00064 Z "/>
</clipPath>
<g clip-path="url(#cp34)">
<text fill="#231f20" xml:space="preserve" transform="matrix(.9998272 0 0 .9998272 0 26.998902)" font-size="11" font-family="ArialMT"><tspan y="196.5" x="402 411.141 418.434 421.45899 429.98399 432.998 436.02299 438.44297 443.90998">MS Office</tspan></text>
</g>
<path transform="matrix(.9998272,0,0,.9998272,0,26.998902)" d="M 386.49858 191.24897 L 386.49858 191.24897 C 387.6049 191.24897 388.5015 192.14557 388.5015 193.2519 C 388.5015 194.353 387.6049 195.24959 386.49858 195.24959 C 385.39747 195.24959 384.5009 194.353 384.5009 193.2519 C 384.5009 192.14557 385.39747 191.24897 386.49858 191.24897 Z " fill="#231f20"/>
<clipPath id="cp35">
<path transform="matrix(.9998272,0,0,.9998272,0,26.998902)" d="M 397.0009 195.99939 L 461.0005 195.99939 L 461.0005 218.00023 L 397.0009 218.00023 Z "/>
</clipPath>
<g clip-path="url(#cp35)">
<text fill="#231f20" xml:space="preserve" transform="matrix(.9998272 0 0 .9998272 0 26.998902)" font-size="11" font-family="ArialMT"><tspan y="210.5" x="402 409.326 415.442 421.55799 424.60499 430.72099 436.22099 442.33699 448.45298">Photoshop</tspan></text>
</g>
<path transform="matrix(.9998272,0,0,.9998272,0,26.998902)" d="M 386.49858 205.24855 L 386.49858 205.24855 C 387.6049 205.24855 388.5015 206.14516 388.5015 207.25148 C 388.5015 208.35257 387.6049 209.24918 386.49858 209.24918 C 385.39747 209.24918 384.5009 208.35257 384.5009 207.25148 C 384.5009 206.14516 385.39747 205.24855 386.49858 205.24855 Z " fill="#231f20"/>
<clipPath id="cp36">
<path transform="matrix(.9998272,0,0,.9998272,0,26.998902)" d="M 397.0009 209.99897 L 454.00068 209.99897 L 454.00068 231.9998 L 397.0009 231.9998 Z "/>
</clipPath>
<g clip-path="url(#cp36)">
<text fill="#231f20" xml:space="preserve" transform="matrix(.9998272 0 0 .9998272 0 26.998902)" font-size="11" font-family="ArialMT"><tspan y="224.5" x="402 405.05799 407.49998 409.94197 416.05796 421.55796 424.60496 428.26795 434.38395 437.43095 443.54695">Illustrator</tspan></text>
</g>
<path transform="matrix(.9998272,0,0,.9998272,0,26.998902)" d="M 386.49858 219.24813 L 386.49858 219.24813 C 387.6049 219.24813 388.5015 220.14473 388.5015 221.25106 C 388.5015 222.35216 387.6049 223.24877 386.49858 223.24877 C 385.39747 223.24877 384.5009 222.35216 384.5009 221.25106 C 384.5009 220.14473 385.39747 219.24813 386.49858 219.24813 Z " fill="#231f20"/>
<clipPath id="cp37">
<path transform="matrix(.9998272,0,0,.9998272,0,26.998902)" d="M 397.0009 223.99855 L 423.99858 223.99855 L 423.99858 245.99939 L 397.0009 245.99939 Z "/>
</clipPath>
<g clip-path="url(#cp37)">
<text fill="#231f20" xml:space="preserve" transform="matrix(.9998272 0 0 .9998272 0 26.998902)" font-size="11" font-family="ArialMT"><tspan y="238.5" x="402 409.33699">XD</tspan></text>
</g>
<path transform="matrix(.9998272,0,0,.9998272,0,26.998902)" d="M 386.49858 233.24771 L 386.49858 233.24771 C 387.6049 233.24771 388.5015 234.14432 388.5015 235.25066 C 388.5015 236.35175 387.6049 237.24834 386.49858 237.24834 C 385.39747 237.24834 384.5009 236.35175 384.5009 235.25066 C 384.5009 234.14432 385.39747 233.24771 386.49858 233.24771 Z " fill="#231f20"/>
</g>
<clipPath id="cp38">
<path transform="matrix(.9998272,0,0,.9998272,0,26.998902)" d="M 148.99854 241.99877 L 150 241.99877 L 150 263.9996 L 148.99854 263.9996 Z "/>
</clipPath>
<g clip-path="url(#cp38)">
<path transform="matrix(.9998272,0,0,.9998272,0,26.998902)" d="M 148.99854 241.99877 L 150 241.99877 L 150 263.9996 L 148.99854 263.9996 Z " fill="#979797"/>
</g>
<clipPath id="cp39">
<path transform="matrix(.9998272,0,0,.9998272,0,26.998902)" d="M 0 0 L 616.1127 0 L 616.1127 736.9233 L 0 736.9233 Z "/>
</clipPath>
<g clip-path="url(#cp39)">
<clipPath id="cp40">
<path transform="matrix(.9998272,0,0,.9998272,0,26.998902)" d="M 34.99895 248.00234 L 140.00107 248.00234 L 140.00107 271.00465 L 34.99895 271.00465 Z "/>
</clipPath>
<g clip-path="url(#cp40)">
<text fill="#0187de" xml:space="preserve" transform="matrix(.9998272 0 0 .9998272 0 26.998902)" font-size="12" font-family="Arial" font-weight="bold"><tspan y="263.5" x="40.3375 51.569505 60.821508 69.401508 77.98151 81.221508 89.801509 93.041507 100.9495 108.1855 117.4255 126.0055">WORK HISTORY</tspan></text>
</g>
<clipPath id="cp41">
<path transform="matrix(.9998272,0,0,.9998272,0,26.998902)" d="M 148.99854 251.99771 L 150 251.99771 L 150 307.99604 L 148.99854 307.99604 Z "/>
</clipPath>
<g clip-path="url(#cp41)">
<path transform="matrix(.9998272,0,0,.9998272,0,26.998902)" d="M 148.99854 251.99771 L 150 251.99771 L 150 307.99604 L 148.99854 307.99604 Z " fill="#979797"/>
</g>
<clipPath id="cp42">
<path transform="matrix(.9998272,0,0,.9998272,0,26.998902)" d="M 473.99858 248.00234 L 525.9963 248.00234 L 525.9963 270.00318 L 473.99858 270.00318 Z "/>
</clipPath>
<g clip-path="url(#cp42)">
<text fill="#231f20" xml:space="preserve" transform="matrix(.9998272 0 0 .9998272 0 26.998902)" font-size="11" font-family="Arial" font-style="italic"><tspan y="262.5" x="479.3 485.416 491.53199 494.568 500.684 506.8 512.916">06/2020</tspan></text>
</g>
<clipPath id="cp43">
<path transform="matrix(.9998272,0,0,.9998272,0,26.998902)" d="M 513.99966 248.00234 L 538.99966 248.00234 L 538.99966 270.00318 L 513.99966 270.00318 Z "/>
</clipPath>
<g clip-path="url(#cp43)">
<text fill="#231f20" xml:space="preserve" transform="matrix(.9998272 0 0 .9998272 0 26.998902)" font-size="11" font-family="Arial" font-style="italic"><tspan y="262.5" x="519.025 522.06106 525.09707 531.1911"> to </tspan></text>
</g>
<clipPath id="cp44">
<path transform="matrix(.9998272,0,0,.9998272,0,26.998902)" d="M 529.0007 248.00234 L 594.0017 248.00234 L 594.0017 270.00318 L 529.0007 270.00318 Z "/>
</clipPath>
<g clip-path="url(#cp44)">
<text fill="#231f20" xml:space="preserve" transform="matrix(.9998272 0 0 .9998272 0 26.998902)" font-size="11" font-family="Arial" font-style="italic"><tspan y="262.5" x="534.1875 542.1405 550.0935 558.0465 565.9885 573.3255 581.2785">CURRENT</tspan></text>
</g>
<clipPath id="cp45">
<path transform="matrix(.9998272,0,0,.9998272,0,26.998902)" d="M 158.9975 248.00234 L 297.99708 248.00234 L 297.99708 270.00318 L 158.9975 270.00318 Z "/>
</clipPath>
<g clip-path="url(#cp45)">
<text fill="#0187de" xml:space="preserve" transform="matrix(.9998272 0 0 .9998272 0 26.998902)" font-size="11" font-family="Arial" font-weight="bold"><tspan y="262.5" x="164 170.72101 178.04701 186.00002 193.94202 201.89502 209.23203 217.17403 219.79203 227.11803 230.17603 238.11803 245.45503 252.78104 255.83904 263.16505 269.06105 277.014 284.96699">TEACHER'S ASSISTANT</tspan></text>
</g>
<clipPath id="cp46">
<path transform="matrix(.9998272,0,0,.9998272,0,26.998902)" d="M 158.9975 262.00193 L 301.9977 262.00193 L 301.9977 284.00276 L 158.9975 284.00276 Z "/>
</clipPath>
<g clip-path="url(#cp46)">
<text fill="#231f20" xml:space="preserve" transform="matrix(.9998272 0 0 .9998272 0 26.998902)" font-size="11" font-family="Arial" font-weight="bold"><tspan y="276.5" x="164 171.942 178.058 184.768 193.315 200.02501 206.74602 213.45603 216.50302 224.44503 231.15503 237.86504 243.98104 247.02803 254.97003 261.08604 267.20204 273.91203 280.028 289.818">Redwood Code Academy</tspan></text>
</g>
<clipPath id="cp47">
<path transform="matrix(.9998272,0,0,.9998272,0,26.998902)" d="M 290.00108 262.00193 L 309.00276 262.00193 L 309.00276 284.00276 L 290.00108 284.00276 Z "/>
</clipPath>
<g clip-path="url(#cp47)">
<text fill="#231f20" xml:space="preserve" transform="matrix(.9998272 0 0 .9998272 0 26.998902)" font-size="11" font-family="Arial" font-weight="bold"><tspan y="276.5" x="295.925 298.961 302.008"> | </tspan></text>
</g>
<clipPath id="cp48">
<path transform="matrix(.9998272,0,0,.9998272,0,26.998902)" d="M 300.00004 262.00193 L 341.00257 262.00193 L 341.00257 284.00276 L 300.00004 284.00276 Z "/>
</clipPath>
<g clip-path="url(#cp48)">
<text fill="#231f20" xml:space="preserve" transform="matrix(.9998272 0 0 .9998272 0 26.998902)" font-size="11" font-family="Arial" font-weight="bold"><tspan y="276.5" x="305 308.05799 312.33699 318.45298 321.49998 328.20997">Irvine</tspan></text>
</g>
<clipPath id="cp49">
<path transform="matrix(.9998272,0,0,.9998272,0,26.998902)" d="M 329.00065 262.00193 L 345.00318 262.00193 L 345.00318 284.00276 L 329.00065 284.00276 Z "/>
</clipPath>
<g clip-path="url(#cp49)">
<text fill="#231f20" xml:space="preserve" transform="matrix(.9998272 0 0 .9998272 0 26.998902)" font-size="11" font-family="Arial" font-weight="bold"><tspan y="276.5" x="334.325 337.383">, </tspan></text>
</g>
<clipPath id="cp50">
<path transform="matrix(.9998272,0,0,.9998272,0,26.998902)" d="M 334.999 262.00193 L 362.99818 262.00193 L 362.99818 284.00276 L 334.999 284.00276 Z "/>
</clipPath>
<g clip-path="url(#cp50)">
<text fill="#231f20" xml:space="preserve" transform="matrix(.9998272 0 0 .9998272 0 26.998902)" font-size="11" font-family="Arial" font-weight="bold"><tspan y="276.5" x="340.375 348.32798">CA</tspan></text>
</g>
<clipPath id="cp51">
<path transform="matrix(.9998272,0,0,.9998272,0,26.998902)" d="M 184.99897 276.0015 L 452.9992 276.0015 L 452.9992 298.00233 L 184.99897 298.00233 Z "/>
</clipPath>
<g clip-path="url(#cp51)">
<text fill="#231f20" xml:space="preserve" transform="matrix(.9998272 0 0 .9998272 0 26.998902)" font-size="11" font-family="ArialMT"><tspan y="290.5" x="190 197.931 204.047 210.152 216.25699 222.37299 227.86199 230.89798 233.33998 239.44498 245.54998 248.59697 256.52799 258.95899 262.00599 268.111 271.147 276.647 279.683 285.78804 291.90403 298.00904 304.11405 307.16105 312.65007 315.69706 318.12806 324.23307 327.28007 333.38508 336.42109 342.53709 348.6421 351.6781 357.7941 360.8301 363.86613 369.98213 373.01814 379.12315 382.78614 385.21714 391.32215 397.43815 400.47416 405.96318 412.07917 417.56819 423.0572 425.49919 431.6042 437.7092 443.2092">Connecting with students in 1 on 1 tutoring sessions.</tspan></text>
</g>
<path transform="matrix(.9998272,0,0,.9998272,0,26.998902)" d="M 174.5019 285.25065 L 174.5019 285.25065 C 175.603 285.25065 176.49959 286.14726 176.49959 287.24836 C 176.49959 288.35469 175.603 289.25129 174.5019 289.25129 C 173.39557 289.25129 172.49897 288.35469 172.49897 287.24836 C 172.49897 286.14726 173.39557 285.25065 174.5019 285.25065 Z " fill="#231f20"/>
<clipPath id="cp52">
<path transform="matrix(.9998272,0,0,.9998272,0,26.998902)" d="M 184.99897 290.00108 L 502.9992 290.00108 L 502.9992 312.0019 L 184.99897 312.0019 Z "/>
</clipPath>
<g clip-path="url(#cp52)">
<text fill="#231f20" xml:space="preserve" transform="matrix(.9998272 0 0 .9998272 0 26.998902)" font-size="11" font-family="ArialMT"><tspan y="304.5" x="190 197.931 204.047 206.478 212.594 215.025 221.12999 227.24599 230.28199 233.32898 239.43398 242.46997 248.58597 254.69097 257.13298 259.56398 265.66899 268.71598 274.82099 277.86799 280.904 287.009 293.125 299.23 305.33503 311.45103 314.48704 316.92903 323.03404 329.13905 332.18605 338.29106 341.33805 344.37406 350.47908 354.14207 360.24708 366.36308 370.01509 376.1201 385.28309 388.3191 391.3661 397.4711 399.9021 406.0181 411.5071 413.9381 420.0541 426.15913 429.20613 437.13713 439.5681 442.6151 448.72013 451.76713 457.25614 460.29216 466.40815 472.51316 478.62916 484.73417 487.77018 493.27018">Helping to build a foundation of program thinking with students.</tspan></text>
</g>
<path transform="matrix(.9998272,0,0,.9998272,0,26.998902)" d="M 174.5019 299.25025 L 174.5019 299.25025 C 175.603 299.25025 176.49959 300.14683 176.49959 301.24794 C 176.49959 302.35426 175.603 303.25086 174.5019 303.25086 C 173.39557 303.25086 172.49897 302.35426 172.49897 301.24794 C 172.49897 300.14683 173.39557 299.25025 174.5019 299.25025 Z " fill="#231f20"/>
</g>
<clipPath id="cp53">
<path transform="matrix(.9998272,0,0,.9998272,0,26.998902)" d="M 148.99854 308.00129 L 150 308.00129 L 150 330.00215 L 148.99854 330.00215 Z "/>
</clipPath>
<g clip-path="url(#cp53)">
<path transform="matrix(.9998272,0,0,.9998272,0,26.998902)" d="M 148.99854 308.00129 L 150 308.00129 L 150 330.00215 L 148.99854 330.00215 Z " fill="#979797"/>
</g>
<clipPath id="cp54">
<path transform="matrix(.9998272,0,0,.9998272,0,26.998902)" d="M 0 0 L 616.1127 0 L 616.1127 736.9233 L 0 736.9233 Z "/>
</clipPath>
<g clip-path="url(#cp54)">
<clipPath id="cp55">
<path transform="matrix(.9998272,0,0,.9998272,0,26.998902)" d="M 148.99854 308.00129 L 150 308.00129 L 150 458.00129 L 148.99854 458.00129 Z "/>
</clipPath>
<g clip-path="url(#cp55)">
<path transform="matrix(.9998272,0,0,.9998272,0,26.998902)" d="M 148.99854 308.00129 L 150 308.00129 L 150 458.00129 L 148.99854 458.00129 Z " fill="#979797"/>
</g>
<clipPath id="cp56">
<path transform="matrix(.9998272,0,0,.9998272,0,26.998902)" d="M 473.99858 313.9996 L 525.9963 313.9996 L 525.9963 336.00044 L 473.99858 336.00044 Z "/>
</clipPath>
<g clip-path="url(#cp56)">
<text fill="#231f20" xml:space="preserve" transform="matrix(.9998272 0 0 .9998272 0 26.998902)" font-size="11" font-family="Arial" font-style="italic"><tspan y="328.5" x="479.3 485.416 491.53199 494.568 500.684 506.8 512.916">09/2017</tspan></text>
</g>
<clipPath id="cp57">
<path transform="matrix(.9998272,0,0,.9998272,0,26.998902)" d="M 513.99966 313.9996 L 538.99966 313.9996 L 538.99966 336.00044 L 513.99966 336.00044 Z "/>
</clipPath>
<g clip-path="url(#cp57)">
<text fill="#231f20" xml:space="preserve" transform="matrix(.9998272 0 0 .9998272 0 26.998902)" font-size="11" font-family="Arial" font-style="italic"><tspan y="328.5" x="519.025 522.06106 525.09707 531.1911"> to </tspan></text>
</g>
<clipPath id="cp58">
<path transform="matrix(.9998272,0,0,.9998272,0,26.998902)" d="M 529.0007 313.9996 L 594.0017 313.9996 L 594.0017 336.00044 L 529.0007 336.00044 Z "/>
</clipPath>
<g clip-path="url(#cp58)">
<text fill="#231f20" xml:space="preserve" transform="matrix(.9998272 0 0 .9998272 0 26.998902)" font-size="11" font-family="Arial" font-style="italic"><tspan y="328.5" x="534.1875 542.1405 550.0935 558.0465 565.9885 573.3255 581.2785">CURRENT</tspan></text>
</g>
<clipPath id="cp59">
<path transform="matrix(.9998272,0,0,.9998272,0,26.998902)" d="M 158.9975 313.9996 L 251.99771 313.9996 L 251.99771 336.00044 L 158.9975 336.00044 Z "/>
</clipPath>
<g clip-path="url(#cp59)">
<text fill="#0187de" xml:space="preserve" transform="matrix(.9998272 0 0 .9998272 0 26.998902)" font-size="11" font-family="Arial" font-weight="bold"><tspan y="328.5" x="164 171.942 179.884 187.826 190.873 198.815 206.141 212.03702 219.99002 223.04802 229.76903 237.10604">CAD DETAILER</tspan></text>
</g>
<clipPath id="cp60">
<path transform="matrix(.9998272,0,0,.9998272,0,26.998902)" d="M 158.9975 327.99919 L 215.99729 327.99919 L 215.99729 350 L 158.9975 350 Z "/>
</clipPath>
<g clip-path="url(#cp60)">
<text fill="#231f20" xml:space="preserve" transform="matrix(.9998272 0 0 .9998272 0 26.998902)" font-size="11" font-family="Arial" font-weight="bold"><tspan y="342.5" x="164 170.71 174.98902 181.10501 187.22101 197.00002 203.11602">Freeman</tspan></text>
</g>
<clipPath id="cp61">
<path transform="matrix(.9998272,0,0,.9998272,0,26.998902)" d="M 204.00064 327.99919 L 223.00232 327.99919 L 223.00232 350 L 204.00064 350 Z "/>
</clipPath>
<g clip-path="url(#cp61)">
<text fill="#231f20" xml:space="preserve" transform="matrix(.9998272 0 0 .9998272 0 26.998902)" font-size="11" font-family="Arial" font-weight="bold"><tspan y="342.5" x="209.8375 212.87349 215.92049"> | </tspan></text>
</g>
<clipPath id="cp62">
<path transform="matrix(.9998272,0,0,.9998272,0,26.998902)" d="M 212.99813 327.99919 L 271.9956 327.99919 L 271.9956 350 L 212.99813 350 Z "/>
</clipPath>
<g clip-path="url(#cp62)">
<text fill="#231f20" xml:space="preserve" transform="matrix(.9998272 0 0 .9998272 0 26.998902)" font-size="11" font-family="Arial" font-weight="bold"><tspan y="342.5" x="218.9125 226.86551 233.57552 239.70252 246.41252 252.53952 255.58652">Anaheim</tspan></text>
</g>
<clipPath id="cp63">
<path transform="matrix(.9998272,0,0,.9998272,0,26.998902)" d="M 259.99897 327.99919 L 276.0015 327.99919 L 276.0015 350 L 259.99897 350 Z "/>
</clipPath>
<g clip-path="url(#cp63)">
<text fill="#231f20" xml:space="preserve" transform="matrix(.9998272 0 0 .9998272 0 26.998902)" font-size="11" font-family="Arial" font-weight="bold"><tspan y="342.5" x="265.3625 268.42048">, </tspan></text>
</g>
<clipPath id="cp64">
<path transform="matrix(.9998272,0,0,.9998272,0,26.998902)" d="M 266.00254 327.99919 L 294.0017 327.99919 L 294.0017 350 L 266.00254 350 Z "/>
</clipPath>
<g clip-path="url(#cp64)">
<text fill="#231f20" xml:space="preserve" transform="matrix(.9998272 0 0 .9998272 0 26.998902)" font-size="11" font-family="Arial" font-weight="bold"><tspan y="342.5" x="271.4125 279.36549">CA</tspan></text>
</g>
<clipPath id="cp65">
<path transform="matrix(.9998272,0,0,.9998272,0,26.998902)" d="M 184.99897 341.99879 L 586.0005 341.99879 L 586.0005 363.99964 L 184.99897 363.99964 Z "/>
</clipPath>
<g clip-path="url(#cp65)">
<text fill="#231f20" xml:space="preserve" transform="matrix(.9998272 0 0 .9998272 0 26.998902)" font-size="11" font-family="ArialMT"><tspan y="356.5" x="190 197.931 204.047 210.152 216.25699 222.36199 226.01398 232.12998 238.23497 241.27097 246.75997 252.25997 258.365 264.47 273.622 279.72703 282.77403 285.20503 290.69404 296.18305 299.23005 302.26606 308.37107 312.02308 315.07008 321.17509 327.2801 333.3851 339.4901 343.1531 349.25813 355.36314 360.85215 363.89915 370.00416 373.04017 376.07618 382.18119 388.29719 393.7862 396.2172 402.3222 408.4382 413.92723 416.96324 419.39424 425.51023 428.54624 435.86125 441.96626 445.00227 451.11827 456.60728 462.71229 468.8173 471.8643 474.9003 481.0053 484.04133 490.14634 493.80934 499.91435 506.01936 512.1244 517.6244 523.72946 526.76547 532.8705 540.8015 543.8485 549.95358 556.0586 562.16366 565.21066 571.3157">Rendered schematics for hundreds of designs in Autocad to produce 2D and 3D</tspan></text>
</g>
<clipPath id="cp66">
<path transform="matrix(.9998272,0,0,.9998272,0,26.998902)" d="M 184.99897 355.99836 L 234.99897 355.99836 L 234.99897 377.9992 L 184.99897 377.9992 Z "/>
</clipPath>
<g clip-path="url(#cp66)">
<text fill="#231f20" xml:space="preserve" transform="matrix(.9998272 0 0 .9998272 0 26.998902)" font-size="11" font-family="ArialMT"><tspan y="370.5" x="190 199.163 205.27899 211.39499 217.51099 219.95299 225.45299">models.</tspan></text>
</g>
<path transform="matrix(.9998272,0,0,.9998272,0,26.998902)" d="M 174.5019 351.24794 L 174.5019 351.24794 C 175.603 351.24794 176.49959 352.14454 176.49959 353.25086 C 176.49959 354.35197 175.603 355.24858 174.5019 355.24858 C 173.39557 355.24858 172.49897 354.35197 172.49897 353.25086 C 172.49897 352.14454 173.39557 351.24794 174.5019 351.24794 Z " fill="#231f20"/>
<clipPath id="cp67">
<path transform="matrix(.9998272,0,0,.9998272,0,26.998902)" d="M 184.99897 369.99794 L 579.0007 369.99794 L 579.0007 391.99879 L 184.99897 391.99879 Z "/>
</clipPath>
<g clip-path="url(#cp67)">
<text fill="#231f20" xml:space="preserve" transform="matrix(.9998272 0 0 .9998272 0 26.998902)" font-size="11" font-family="ArialMT"><tspan y="384.5" x="190 197.942 204.047 210.152 215.652 221.75699 224.19899 227.23499 233.35099 239.45598 242.49198 250.43398 252.86498 255.91197 262.017 265.064 271.169 277.27403 282.77403 285.20503 291.321 297.42604 303.54203 307.19404 312.68305 315.73005 318.76606 324.26606 330.37107 332.81306 338.91807 344.40708 347.45408 350.49009 356.60609 362.7111 371.87409 374.9101 384.0621 390.1781 399.3301 405.4461 411.55113 415.2141 420.70314 423.73915 426.78614 432.89115 439.00715 445.11216 448.15916 453.64817 459.75318 465.86918 471.97419 478.09019 481.7422 487.2422 490.2782 493.9302 500.0462 506.1512 512.2672 515.91928 522.0353 524.4663 530.57138 536.6874 539.7234 545.8394 549.49148 555.6075 558.0385 564.14358 569.64358">Consulted with designers, sales team members, and vendors regarding project</tspan></text>
</g>
<clipPath id="cp68">
<path transform="matrix(.9998272,0,0,.9998272,0,26.998902)" d="M 184.99897 383.9975 L 329.9969 383.9975 L 329.9969 405.99836 L 184.99897 405.99836 Z "/>
</clipPath>
<g clip-path="url(#cp68)">
<text fill="#231f20" xml:space="preserve" transform="matrix(.9998272 0 0 .9998272 0 26.998902)" font-size="11" font-family="ArialMT"><tspan y="398.5" x="190 195.489 200.989 207.094 213.20999 219.31499 222.35099 228.46698 234.57198 240.68798 243.72397 252.88697 255.31797 257.74897 263.86497 269.35398 272.40098 278.50599 284.611 290.727 293.763 299.879 305.984 309.031 315.13603 320.62504">scope and milestone dates.</tspan></text>
</g>
<path transform="matrix(.9998272,0,0,.9998272,0,26.998902)" d="M 174.5019 379.25233 L 174.5019 379.25233 C 175.603 379.25233 176.49959 380.14369 176.49959 381.25004 C 176.49959 382.35636 175.603 383.2477 174.5019 383.2477 C 173.39557 383.2477 172.49897 382.35636 172.49897 381.25004 C 172.49897 380.14369 173.39557 379.25233 174.5019 379.25233 Z " fill="#231f20"/>
<clipPath id="cp69">
<path transform="matrix(.9998272,0,0,.9998272,0,26.998902)" d="M 184.99897 398.00236 L 583.00137 398.00236 L 583.00137 420.00318 L 184.99897 420.00318 Z "/>
</clipPath>
<g clip-path="url(#cp69)">
<text fill="#231f20" xml:space="preserve" transform="matrix(.9998272 0 0 .9998272 0 26.998902)" font-size="11" font-family="ArialMT"><tspan y="412.5" x="190 197.931 204.047 206.478 208.909 215.025 221.12999 227.23499 230.89798 237.00298 240.04998 246.15497 252.25997 255.30696 263.23799 265.66899 268.71598 274.82099 277.857 283.973 290.078 295.56703 298.009 304.114 310.21903 313.26603 319.37104 325.47605 331.59205 334.62806 340.11708 346.23307 348.66407 354.76908 360.26908 363.30509 366.3411 372.4571 378.5621 387.7141 390.7611 399.91313 406.01814 415.18113 421.28614 427.40214 431.05415 436.54316 439.59016 442.62617 448.73118 451.77818 457.26719 463.3722 465.81419 471.3032 477.4082 480.4552 483.4912 489.59623 495.71223 498.74824 504.23725 510.35325 516.45828 518.8893 521.3313 527.43637 533.5414 539.6574 545.76248 551.25149 554.29849 557.3345 560.9865 567.10256">Collaborated with design and sales team members to solve the challenges from</tspan></text>
</g>
<clipPath id="cp70">
<path transform="matrix(.9998272,0,0,.9998272,0,26.998902)" d="M 184.99897 412.00193 L 322.00086 412.00193 L 322.00086 434.00276 L 184.99897 434.00276 Z "/>
</clipPath>
<g clip-path="url(#cp70)">
<text fill="#231f20" xml:space="preserve" transform="matrix(.9998272 0 0 .9998272 0 26.998902)" font-size="11" font-family="ArialMT"><tspan y="426.5" x="190 193.047 199.152 205.25699 208.30399 214.40898 220.51398 226.01398 228.44498 234.54998 240.66597 243.70197 246.73796 252.84296 255.88996 261.99497 268.09999 271.14698 277.25199 279.68299 282.12498 285.16099 290.65 293.697 299.802 305.907 312.01203">the design to detail stage.</tspan></text>
</g>
<path transform="matrix(.9998272,0,0,.9998272,0,26.998902)" d="M 174.5019 407.2515 L 174.5019 407.2515 C 175.603 407.2515 176.49959 408.1481 176.49959 409.24919 C 176.49959 410.35554 175.603 411.25215 174.5019 411.25215 C 173.39557 411.25215 172.49897 410.35554 172.49897 409.24919 C 172.49897 408.1481 173.39557 407.2515 174.5019 407.2515 Z " fill="#231f20"/>
<clipPath id="cp71">
<path transform="matrix(.9998272,0,0,.9998272,0,26.998902)" d="M 184.99897 426.0015 L 550 426.0015 L 550 448.00233 L 184.99897 448.00233 Z "/>
</clipPath>
<g clip-path="url(#cp71)">
<text fill="#231f20" xml:space="preserve" transform="matrix(.9998272 0 0 .9998272 0 26.998902)" font-size="11" font-family="ArialMT"><tspan y="440.5" x="190 197.942 204.047 209.547 211.978 218.094 226.025 232.14099 238.24599 241.29299 246.79299 252.89798 259.01399 264.503 266.94499 269.981 272.42298 277.912 284.02799 287.064 289.50599 295.62199 301.727 307.227 310.263 313.31 319.415 322.462 328.56703 334.683 340.78804 346.90403 350.56703 356.67204 359.71903 365.82405 368.87104 374.36006 380.47605 389.62806 395.74406 398.17506 404.29106 409.79106 412.82707 418.94306 425.04808 428.09507 434.20008 436.64207 439.07307 444.57307 447.60908 453.72508 456.77207 459.80809 462.25007 468.35508 474.47108 476.90208 482.40208 484.83308 490.94908 497.05409 503.17008 505.61207 508.64808 514.1481 519.6371 525.1371 528.1731 534.2891">Reviewed specifications to generate complex details of individual system</tspan></text>
</g>
<clipPath id="cp72">
<path transform="matrix(.9998272,0,0,.9998272,0,26.998902)" d="M 184.99897 440.00108 L 258.9975 440.00108 L 258.9975 462.0019 L 184.99897 462.0019 Z "/>
</clipPath>
<g clip-path="url(#cp72)">
<text fill="#231f20" xml:space="preserve" transform="matrix(.9998272 0 0 .9998272 0 26.998902)" font-size="11" font-family="ArialMT"><tspan y="454.5" x="190 195.5 201.616 210.77899 216.88399 222.99999 229.11598 235.23198 241.34798 244.39498 249.89498">components.</tspan></text>
</g>
<path transform="matrix(.9998272,0,0,.9998272,0,26.998902)" d="M 174.5019 435.25068 L 174.5019 435.25068 C 175.603 435.25068 176.49959 436.14726 176.49959 437.24836 C 176.49959 438.35469 175.603 439.25129 174.5019 439.25129 C 173.39557 439.25129 172.49897 438.35469 172.49897 437.24836 C 172.49897 436.14726 173.39557 435.25068 174.5019 435.25068 Z " fill="#231f20"/>
</g>
<clipPath id="cp73">
<path transform="matrix(.9998272,0,0,.9998272,0,26.998902)" d="M 148.99854 458.00129 L 150 458.00129 L 150 480.00215 L 148.99854 480.00215 Z "/>
</clipPath>
<g clip-path="url(#cp73)">
<path transform="matrix(.9998272,0,0,.9998272,0,26.998902)" d="M 148.99854 458.00129 L 150 458.00129 L 150 480.00215 L 148.99854 480.00215 Z " fill="#979797"/>
</g>
<clipPath id="cp74">
<path transform="matrix(.9998272,0,0,.9998272,0,26.998902)" d="M 0 0 L 616.1127 0 L 616.1127 736.9233 L 0 736.9233 Z "/>
</clipPath>
<g clip-path="url(#cp74)">
<clipPath id="cp75">
<path transform="matrix(.9998272,0,0,.9998272,0,26.998902)" d="M 148.99854 458.00129 L 150 458.00129 L 150 622.00088 L 148.99854 622.00088 Z "/>
</clipPath>
<g clip-path="url(#cp75)">
<path transform="matrix(.9998272,0,0,.9998272,0,26.998902)" d="M 148.99854 458.00129 L 150 458.00129 L 150 622.00088 L 148.99854 622.00088 Z " fill="#979797"/>
</g>
<clipPath id="cp76">
<path transform="matrix(.9998272,0,0,.9998272,0,26.998902)" d="M 487.99815 463.9996 L 539.99588 463.9996 L 539.99588 486.00044 L 487.99815 486.00044 Z "/>
</clipPath>
<g clip-path="url(#cp76)">
<text fill="#231f20" xml:space="preserve" transform="matrix(.9998272 0 0 .9998272 0 26.998902)" font-size="11" font-family="Arial" font-style="italic"><tspan y="478.5" x="493.3875 499.5035 505.6195 508.65553 514.77157 520.8876 527.0036">01/2013</tspan></text>
</g>
<clipPath id="cp77">
<path transform="matrix(.9998272,0,0,.9998272,0,26.998902)" d="M 527.9992 463.9996 L 552.9992 463.9996 L 552.9992 486.00044 L 527.9992 486.00044 Z "/>
</clipPath>
<g clip-path="url(#cp77)">
<text fill="#231f20" xml:space="preserve" transform="matrix(.9998272 0 0 .9998272 0 26.998902)" font-size="11" font-family="Arial" font-style="italic"><tspan y="478.5" x="533.1125 536.1485 539.1845 545.27859"> to </tspan></text>
</g>
<clipPath id="cp78">
<path transform="matrix(.9998272,0,0,.9998272,0,26.998902)" d="M 543.00027 463.9996 L 594.0017 463.9996 L 594.0017 486.00044 L 543.00027 486.00044 Z "/>
</clipPath>
<g clip-path="url(#cp78)">
<text fill="#231f20" xml:space="preserve" transform="matrix(.9998272 0 0 .9998272 0 26.998902)" font-size="11" font-family="Arial" font-style="italic"><tspan y="478.5" x="548.275 554.39108 560.5071 563.5431 569.6591 575.77517 581.8912">09/2017</tspan></text>
</g>
<clipPath id="cp79">
<path transform="matrix(.9998272,0,0,.9998272,0,26.998902)" d="M 158.9975 463.9996 L 296.9956 463.9996 L 296.9956 486.00044 L 158.9975 486.00044 Z "/>
</clipPath>
<g clip-path="url(#cp79)">
<text fill="#0187de" xml:space="preserve" transform="matrix(.9998272 0 0 .9998272 0 26.998902)" font-size="11" font-family="Arial" font-weight="bold"><tspan y="478.5" x="164 171.326 178.65201 186.59401 189.641 198.188 206.13 209.177 217.119 225.061 233.003 236.05 243.992 251.31801 257.21403 265.167 268.22499 274.94596 282.27195">SENIOR CAD DETAILER</tspan></text>
</g>
<clipPath id="cp80">
<path transform="matrix(.9998272,0,0,.9998272,0,26.998902)" d="M 158.9975 477.9992 L 317.995 477.9992 L 317.995 500.00007 L 158.9975 500.00007 Z "/>
</clipPath>
<g clip-path="url(#cp80)">
<text fill="#231f20" xml:space="preserve" transform="matrix(.9998272 0 0 .9998272 0 26.998902)" font-size="11" font-family="Arial" font-weight="bold"><tspan y="492.5" x="164 174.362 180.467 186.57199 190.22399 193.25998 201.20198 207.90099 214.00598 220.11098 223.76297 226.79897 234.11397 240.21897 246.91797 249.95397 256.65299 259.689 263.341 266.377 273.69203 279.79704 284.06504 290.17005 293.20606 299.31108 305.41609">West Coast Exhibit Services</tspan></text>
</g>
<clipPath id="cp81">
<path transform="matrix(.9998272,0,0,.9998272,0,26.998902)" d="M 305.99836 477.9992 L 325.00004 477.9992 L 325.00004 500.00007 L 305.99836 500.00007 Z "/>
</clipPath>
<g clip-path="url(#cp81)">
<text fill="#231f20" xml:space="preserve" transform="matrix(.9998272 0 0 .9998272 0 26.998902)" font-size="11" font-family="Arial" font-weight="bold"><tspan y="492.5" x="311.525 314.561 317.608"> | </tspan></text>
</g>
<clipPath id="cp82">
<path transform="matrix(.9998272,0,0,.9998272,0,26.998902)" d="M 315.00108 477.9992 L 373.99858 477.9992 L 373.99858 500.00007 L 315.00108 500.00007 Z "/>
</clipPath>
<g clip-path="url(#cp82)">
<text fill="#231f20" xml:space="preserve" transform="matrix(.9998272 0 0 .9998272 0 26.998902)" font-size="11" font-family="Arial" font-weight="bold"><tspan y="492.5" x="320.6 328.55299 335.26298 341.38996 348.09996 354.22694 357.27394">Anaheim</tspan></text>
</g>
<clipPath id="cp83">
<path transform="matrix(.9998272,0,0,.9998272,0,26.998902)" d="M 362.00193 477.9992 L 378.00447 477.9992 L 378.00447 500.00007 L 362.00193 500.00007 Z "/>
</clipPath>
<g clip-path="url(#cp83)">
<text fill="#231f20" xml:space="preserve" transform="matrix(.9998272 0 0 .9998272 0 26.998902)" font-size="11" font-family="Arial" font-weight="bold"><tspan y="492.5" x="367.05 370.10798">, </tspan></text>
</g>
<clipPath id="cp84">
<path transform="matrix(.9998272,0,0,.9998272,0,26.998902)" d="M 368.00025 477.9992 L 394.99794 477.9992 L 394.99794 500.00007 L 368.00025 500.00007 Z "/>
</clipPath>
<g clip-path="url(#cp84)">
<text fill="#231f20" xml:space="preserve" transform="matrix(.9998272 0 0 .9998272 0 26.998902)" font-size="11" font-family="Arial" font-weight="bold"><tspan y="492.5" x="373.1 381.05299">CA</tspan></text>
</g>
<clipPath id="cp85">
<path transform="matrix(.9998272,0,0,.9998272,0,26.998902)" d="M 184.99897 491.99879 L 590.9973 491.99879 L 590.9973 513.99966 L 184.99897 513.99966 Z "/>
</clipPath>
<g clip-path="url(#cp85)">
<text fill="#231f20" xml:space="preserve" transform="matrix(.9998272 0 0 .9998272 0 26.998902)" font-size="11" font-family="ArialMT"><tspan y="506.5" x="190 197.942 204.047 210.152 216.26799 222.37299 226.03598 232.14098 238.24597 241.29297 246.78197 252.28197 258.387 264.503 273.655 279.76 282.807 285.238 290.738 296.22703 299.27403 302.31004 308.41505 312.07804 315.11405 321.23005 323.66105 326.09205 329.13905 335.24406 341.36006 346.84907 349.29106 355.39607 361.50108 367.00108 370.03709 372.47908 378.58409 381.63108 384.66709 390.7721 396.8881 399.9241 406.0401 412.1451 417.6451 420.0761 426.18113 432.29713 437.78614 443.28614 446.32215 454.25315 456.69514 459.73115 465.84715 468.88316 476.20915 482.31416 485.35017 491.46617 496.95518 503.07118 509.17619 512.2232 518.93319 525.0492 530.5492 533.5852 539.70126 543.36428 551.2953 557.4113 561.07437 566.56338 572.06338 575.11038 578.14639">Rendered schematics for all designs in the business with Autocad/Vectorworks to</tspan></text>
</g>
<clipPath id="cp86">
<path transform="matrix(.9998272,0,0,.9998272,0,26.998902)" d="M 184.99897 505.99836 L 333.00129 505.99836 L 333.00129 527.9992 L 184.99897 527.9992 Z "/>
</clipPath>
<g clip-path="url(#cp86)">
<text fill="#231f20" xml:space="preserve" transform="matrix(.9998272 0 0 .9998272 0 26.998902)" font-size="11" font-family="ArialMT"><tspan y="520.5" x="190 196.105 199.76799 205.87299 211.97798 218.08298 223.57198 229.68798 232.72397 238.82897 246.75997 249.79596 255.91196 262.01698 268.12199 271.158 277.274 285.205 288.241 297.393 303.49803 309.614 315.71903 318.15003 323.63905">produce 2D and 3D models.</tspan></text>
</g>
<path transform="matrix(.9998272,0,0,.9998272,0,26.998902)" d="M 174.5019 501.24794 L 174.5019 501.24794 C 175.603 501.24794 176.49959 502.14454 176.49959 503.2509 C 176.49959 504.35197 175.603 505.24858 174.5019 505.24858 C 173.39557 505.24858 172.49897 504.35197 172.49897 503.2509 C 172.49897 502.14454 173.39557 501.24794 174.5019 501.24794 Z " fill="#231f20"/>
<clipPath id="cp87">
<path transform="matrix(.9998272,0,0,.9998272,0,26.998902)" d="M 184.99897 519.9979 L 566.9988 519.9979 L 566.9988 541.9988 L 184.99897 541.9988 Z "/>
</clipPath>
<g clip-path="url(#cp87)">
<text fill="#231f20" xml:space="preserve" transform="matrix(.9998272 0 0 .9998272 0 26.998902)" font-size="11" font-family="ArialMT"><tspan y="534.5" x="190 196.699 200.351 206.456 212.56099 218.04999 220.48099 226.58599 229.62198 235.72698 241.83197 244.85697 252.78797 258.89299 262.54499 268.034 271.07 277.17503 280.82704 286.93205 293.03706 296.68907 302.17808 305.20307 311.30809 317.4131 323.5181 326.5541 332.65913 335.09013 341.19514 347.30015 353.40516 357.05717 359.48817 365.58216 368.61817 374.10719 377.1432 379.5742 385.6792 388.7152 394.82023 397.85624 407.00825 413.11326 418.59126 424.69627 427.12727 433.23228 435.66328 441.76829 447.8733 450.9093 457.0143 463.11933 466.77134 472.87635 482.01734 488.12236 491.15837 497.26338 500.91539 506.4044 509.4404 515.5454 521.65048 527.7555 530.7915 536.89657 539.3166 545.42166 551.5267 557.0157">Translated work orders and blueprints into machining parameters and plans.</tspan></text>
</g>
<path transform="matrix(.9998272,0,0,.9998272,0,26.998902)" d="M 174.5019 529.2524 L 174.5019 529.2524 C 175.603 529.2524 176.49959 530.14376 176.49959 531.25009 C 176.49959 532.3564 175.603 533.24777 174.5019 533.24777 C 173.39557 533.24777 172.49897 532.3564 172.49897 531.25009 C 172.49897 530.14376 173.39557 529.2524 174.5019 529.2524 Z " fill="#231f20"/>
<clipPath id="cp88">
<path transform="matrix(.9998272,0,0,.9998272,0,26.998902)" d="M 184.99897 533.9975 L 568.00027 533.9975 L 568.00027 555.99838 L 184.99897 555.99838 Z "/>
</clipPath>
<g clip-path="url(#cp88)">
<text fill="#231f20" xml:space="preserve" transform="matrix(.9998272 0 0 .9998272 0 26.998902)" font-size="11" font-family="ArialMT"><tspan y="548.5" x="190 197.942 204.047 209.547 211.978 218.094 226.025 232.14099 238.24599 241.29299 249.22399 257.166 265.097 268.14399 274.249 280.365 285.854 288.296 294.401 300.517 306.006 309.053 312.1 318.20503 321.868 324.90403 331.02003 334.67204 340.78804 344.44004 350.55604 354.20805 360.32405 366.42906 372.54505 378.03407 381.08106 383.51206 389.62806 395.73307 398.78007 404.88508 408.54808 412.20008 418.31608 421.96809 427.46809 430.51509 433.5511 439.66709 442.09809 444.54008 453.69209 456.13407 462.23908 468.35508 471.39109 473.83308 479.93809 486.05409 489.0901 495.2061 501.3111 506.8111 509.2421 515.3581 521.46316 524.51016 527.54617 529.98818 536.0932 544.0352 549.5352 552.5712 555.6182">Reviewed CNC designs for pre-production errors, eliminating design flaws to</tspan></text>
</g>
<clipPath id="cp89">
<path transform="matrix(.9998272,0,0,.9998272,0,26.998902)" d="M 184.99897 548.0024 L 327.99919 548.0024 L 327.99919 570.00326 L 184.99897 570.00326 Z "/>
</clipPath>
<g clip-path="url(#cp89)">
<text fill="#231f20" xml:space="preserve" transform="matrix(.9998272 0 0 .9998272 0 26.998902)" font-size="11" font-family="ArialMT"><tspan y="562.5" x="190 193.663 199.76799 205.88399 211.98899 217.48899 223.59398 226.64098 230.29297 236.40897 244.33997 247.38697 256.53898 262.65498 265.69099 271.80699 275.45899 277.90098 284.00599 286.44798 289.48399 297.42597 303.53099 309.03099 312.067 318.18299">reduce raw material waste.</tspan></text>
</g>
<path transform="matrix(.9998272,0,0,.9998272,0,26.998902)" d="M 174.5019 543.25198 L 174.5019 543.25198 C 175.603 543.25198 176.49959 544.14859 176.49959 545.24966 C 176.49959 546.35598 175.603 547.25259 174.5019 547.25259 C 173.39557 547.25259 172.49897 546.35598 172.49897 545.24966 C 172.49897 544.14859 173.39557 543.25198 174.5019 543.25198 Z " fill="#231f20"/>
<clipPath id="cp90">
<path transform="matrix(.9998272,0,0,.9998272,0,26.998902)" d="M 184.99897 562.00198 L 493.99647 562.00198 L 493.99647 584.0028 L 184.99897 584.0028 Z "/>
</clipPath>
<g clip-path="url(#cp90)">
<text fill="#231f20" xml:space="preserve" transform="matrix(.9998272 0 0 .9998272 0 26.998902)" font-size="11" font-family="ArialMT"><tspan y="576.5" x="190 196.105 202.221 208.32599 211.36199 217.47798 223.58298 229.08298 231.51398 234.54998 240.66597 243.70197 246.13297 252.24897 258.35398 264.45899 268.12199 271.158 274.194 280.31 286.415 295.56703 301.06703 304.10304 306.53404 312.65003 315.68605 318.73304 324.83805 330.94306 333.99006 339.47908 345.58409 351.70008 357.1891 360.2251 363.8881 369.9931 375.48213 378.5291 380.9601 387.06513 393.18113 396.21714 402.32215 405.36915 408.40516 413.89418 420.01017 425.49919 428.54618 434.65119 443.8032 446.8502 452.9552 458.4442 464.5602 466.9912 473.09623 475.5382 478.57423 484.06324">Led onsite labor teams in the construction of custom exhibits.</tspan></text>
</g>
<path transform="matrix(.9998272,0,0,.9998272,0,26.998902)" d="M 174.5019 571.2511 L 174.5019 571.2511 C 175.603 571.2511 176.49959 572.1477 176.49959 573.2488 C 176.49959 574.3551 175.603 575.2517 174.5019 575.2517 C 173.39557 575.2517 172.49897 574.3551 172.49897 573.2488 C 172.49897 572.1477 173.39557 571.2511 174.5019 571.2511 Z " fill="#231f20"/>
<clipPath id="cp91">
<path transform="matrix(.9998272,0,0,.9998272,0,26.998902)" d="M 184.99897 576.0015 L 547.00088 576.0015 L 547.00088 598.0024 L 184.99897 598.0024 Z "/>
</clipPath>
<g clip-path="url(#cp91)">
<text fill="#231f20" xml:space="preserve" transform="matrix(.9998272 0 0 .9998272 0 26.998902)" font-size="11" font-family="ArialMT"><tspan y="590.5" x="190 196.71 202.815 208.931 215.036 221.14099 224.18799 230.29299 236.39798 242.51398 245.54998 251.65497 254.70197 257.13298 259.57496 262.00596 267.49497 273.61097 279.71598 282.75199 288.86799 294.973 298.625 304.741 312.672 318.788 322.44 328.545 331.592 337.69703 343.80204 349.91804 352.95405 358.44306 364.55906 373.71107 379.82707 385.93208 392.03709 398.15309 404.2581 407.2941 412.7941 415.8301 418.86613 424.98213 428.01814 433.51814 439.62315 442.05415 447.55415 453.65916 456.69517 462.81117 468.91618 474.40519 476.84718 482.95219 489.06819 492.1042 498.2092 501.8722 507.9772 514.0822 516.52426 522.6293 531.7923 537.2813">Found and utilized hardware and components to solve design problems.</tspan></text>
</g>
<path transform="matrix(.9998272,0,0,.9998272,0,26.998902)" d="M 174.5019 585.2507 L 174.5019 585.2507 C 175.603 585.2507 176.49959 586.1473 176.49959 587.24838 C 176.49959 588.3547 175.603 589.2513 174.5019 589.2513 C 173.39557 589.2513 172.49897 588.3547 172.49897 587.24838 C 172.49897 586.1473 173.39557 585.2507 174.5019 585.2507 Z " fill="#231f20"/>
<clipPath id="cp92">
<path transform="matrix(.9998272,0,0,.9998272,0,26.998902)" d="M 184.99897 590.0011 L 573.99856 590.0011 L 573.99856 612.00198 L 184.99897 612.00198 Z "/>
</clipPath>
<g clip-path="url(#cp92)">
<text fill="#231f20" xml:space="preserve" transform="matrix(.9998272 0 0 .9998272 0 26.998902)" font-size="11" font-family="ArialMT"><tspan y="604.5" x="190 197.326 203.431 208.92 214.42 220.525 226.62999 229.67699 235.78199 241.88698 244.92298 250.42298 256.52799 265.68 271.796 277.901 284.006 289.506 292.54203 298.64704 304.75205 307.79905 313.90406 316.94007 319.98707 326.09208 329.12809 335.24409 337.67509 343.1641 346.2001 349.8631 352.2941 358.3991 364.5151 367.55113 373.65614 379.76115 382.80815 388.29716 391.33317 397.44917 401.10118 407.20619 413.32218 419.4272 422.4632 427.9522 434.0682 440.17323 443.20924 449.32524 452.97724 458.46626 461.51325 464.54927 470.65428 473.69029 479.80628 485.2953 491.4003 493.8423 499.9473 502.9833 512.1463 518.25137 523.74038 529.2294 531.6714 537.1604 543.26547 546.31246 552.4175 558.5225 561.55856">Backed up company data to distributed storage centers to avoid massive data</tspan></text>
</g>
<clipPath id="cp93">
<path transform="matrix(.9998272,0,0,.9998272,0,26.998902)" d="M 184.99897 604.0007 L 397.00086 604.0007 L 397.00086 626.0015 L 184.99897 626.0015 Z "/>
</clipPath>
<g clip-path="url(#cp93)">
<text fill="#231f20" xml:space="preserve" transform="matrix(.9998272 0 0 .9998272 0 26.998902)" font-size="11" font-family="ArialMT"><tspan y="618.5" x="190 192.431 198.547 204.036 209.525 212.56099 215.00299 221.10799 224.14398 230.25998 235.74898 241.85398 247.95897 251.00597 254.04196 260.14698 263.18299 266.22999 272.335 278.44 281.487 289.418 295.523 299.17503 304.67503 307.71104 313.81605 317.47904 323.58406 329.68907 335.17808 341.29408 344.33009 350.4351 354.0871 357.1341 360.1701 366.27513 368.7171 371.1481 377.2531 380.90513 387.02113">loss in event of network breach or failure.</tspan></text>
</g>
<path transform="matrix(.9998272,0,0,.9998272,0,26.998902)" d="M 174.5019 599.25027 L 174.5019 599.25027 C 175.603 599.25027 176.49959 600.14688 176.49959 601.2479 C 176.49959 602.3543 175.603 603.25088 174.5019 603.25088 C 173.39557 603.25088 172.49897 602.3543 172.49897 601.2479 C 172.49897 600.14688 173.39557 599.25027 174.5019 599.25027 Z " fill="#231f20"/>
</g>
<clipPath id="cp94">
<path transform="matrix(.9998272,0,0,.9998272,0,26.998902)" d="M 148.99854 622.00088 L 150 622.00088 L 150 644.0017 L 148.99854 644.0017 Z "/>
</clipPath>
<g clip-path="url(#cp94)">
<path transform="matrix(.9998272,0,0,.9998272,0,26.998902)" d="M 148.99854 622.00088 L 150 622.00088 L 150 644.0017 L 148.99854 644.0017 Z " fill="#979797"/>
</g>
<clipPath id="cp95">
<path transform="matrix(.9998272,0,0,.9998272,0,26.998902)" d="M 0 0 L 616.1127 0 L 616.1127 736.9233 L 0 736.9233 Z "/>
</clipPath>
<g clip-path="url(#cp95)">
<clipPath id="cp96">
<path transform="matrix(.9998272,0,0,.9998272,0,26.998902)" d="M 58.00126 627.9992 L 140.00107 627.9992 L 140.00107 651.0015 L 58.00126 651.0015 Z "/>
</clipPath>
<g clip-path="url(#cp96)">
<text fill="#0187de" xml:space="preserve" transform="matrix(.9998272 0 0 .9998272 0 26.998902)" font-size="12" font-family="Arial" font-weight="bold"><tspan y="643.5" x="63.575 71.567 80.231 88.895008 97.559009 105.34701 112.66701 116.003009 125.339008">EDUCATION</tspan></text>
</g>
<clipPath id="cp97">
<path transform="matrix(.9998272,0,0,.9998272,0,26.998902)" d="M 148.99854 631.9998 L 150 631.9998 L 150 659.99899 L 148.99854 659.99899 Z "/>
</clipPath>
<g clip-path="url(#cp97)">
<path transform="matrix(.9998272,0,0,.9998272,0,26.998902)" d="M 148.99854 631.9998 L 150 631.9998 L 150 659.99899 L 148.99854 659.99899 Z " fill="#979797"/>
</g>
<clipPath id="cp98">
<path transform="matrix(.9998272,0,0,.9998272,0,26.998902)" d="M 543.00027 627.9992 L 594.0017 627.9992 L 594.0017 650.00009 L 543.00027 650.00009 Z "/>
</clipPath>
<g clip-path="url(#cp98)">
<text fill="#231f20" xml:space="preserve" transform="matrix(.9998272 0 0 .9998272 0 26.998902)" font-size="11" font-family="Arial" font-style="italic"><tspan y="642.5" x="548.275 554.39108 560.5071 563.5431 569.6591 575.77517 581.8912">06/2020</tspan></text>
</g>
<clipPath id="cp99">
<path transform="matrix(.9998272,0,0,.9998272,0,26.998902)" d="M 158.9975 627.9992 L 260.9952 627.9992 L 260.9952 650.00009 L 158.9975 650.00009 Z "/>
</clipPath>
<g clip-path="url(#cp99)">
<text fill="#231f20" xml:space="preserve" transform="matrix(.9998272 0 0 .9998272 0 26.998902)" font-size="11" font-family="ArialMT"><tspan y="642.5" x="164 174.362 180.456 186.56099 189.58599 197.50598 203.61098 209.08898 215.19397 217.61397 223.71897 229.81296 238.95395 245.05895 251.15294">Web Development</tspan></text>
</g>
<clipPath id="cp100">
<path transform="matrix(.9998272,0,0,.9998272,0,26.998902)" d="M 158.9975 641.9988 L 301.9977 641.9988 L 301.9977 663.99966 L 158.9975 663.99966 Z "/>
</clipPath>
<g clip-path="url(#cp100)">
<text fill="#231f20" xml:space="preserve" transform="matrix(.9998272 0 0 .9998272 0 26.998902)" font-size="11" font-family="Arial" font-weight="bold"><tspan y="656.5" x="164 171.942 178.058 184.768 193.315 200.02501 206.74602 213.45603 216.50302 224.44503 231.15503 237.86504 243.98104 247.02803 254.97003 261.08604 267.20204 273.91203 280.028 289.818">Redwood Code Academy</tspan></text>
</g>
<clipPath id="cp101">
<path transform="matrix(.9998272,0,0,.9998272,0,26.998902)" d="M 290.00108 641.9988 L 306.0036 641.9988 L 306.0036 663.99966 L 290.00108 663.99966 Z "/>
</clipPath>
<g clip-path="url(#cp101)">
<text fill="#231f20" xml:space="preserve" transform="matrix(.9998272 0 0 .9998272 0 26.998902)" font-size="11" font-family="Arial" font-weight="bold"><tspan y="656.5" x="295.1125 298.17048">, </tspan></text>
</g>
<clipPath id="cp102">
<path transform="matrix(.9998272,0,0,.9998272,0,26.998902)" d="M 295.9994 641.9988 L 337.00193 641.9988 L 337.00193 663.99966 L 295.9994 663.99966 Z "/>
</clipPath>
<g clip-path="url(#cp102)">
<text fill="#231f20" xml:space="preserve" transform="matrix(.9998272 0 0 .9998272 0 26.998902)" font-size="11" font-family="Arial" font-weight="bold"><tspan y="656.5" x="301.1625 304.2205 308.49949 314.61549 317.66249 324.37248">Irvine</tspan></text>
</g>
<clipPath id="cp103">
<path transform="matrix(.9998272,0,0,.9998272,0,26.998902)" d="M 148.99854 659.999 L 150 659.999 L 150 711.9967 L 148.99854 711.9967 Z "/>
</clipPath>
<g clip-path="url(#cp103)">
<path transform="matrix(.9998272,0,0,.9998272,0,26.998902)" d="M 148.99854 659.999 L 150 659.999 L 150 711.9967 L 148.99854 711.9967 Z " fill="#979797"/>
</g>
<clipPath id="cp104">
<path transform="matrix(.9998272,0,0,.9998272,0,26.998902)" d="M 158.9975 666.00259 L 228.9954 666.00259 L 228.9954 688.0034 L 158.9975 688.0034 Z "/>
</clipPath>
<g clip-path="url(#cp104)">
<text fill="#231f20" xml:space="preserve" transform="matrix(.9998272 0 0 .9998272 0 26.998902)" font-size="11" font-family="ArialMT"><tspan y="680.5" x="164 171.337 175 180.5 186.616 189.058 192.105 198.221 203.721 206.76799 212.88399 216.54698">Architecture</tspan></text>
</g>
<clipPath id="cp105">
<path transform="matrix(.9998272,0,0,.9998272,0,26.998902)" d="M 158.9975 680.00216 L 325.99626 680.00216 L 325.99626 702.003 L 158.9975 702.003 Z "/>
</clipPath>
<g clip-path="url(#cp105)">
<text fill="#231f20" xml:space="preserve" transform="matrix(.9998272 0 0 .9998272 0 26.998902)" font-size="11" font-family="Arial" font-weight="bold"><tspan y="694.5" x="164 171.942 174.989 181.105 187.221 191.5 197.616 200.663 207.373 213.489 216.536 224.478 231.188 240.96701 250.74602 257.45603 264.16603 267.213 270.876 276.992 280.039 287.981 294.69099 297.73799 300.78498 306.90098 313.61097">Riverside Community College</tspan></text>
</g>
<clipPath id="cp106">
<path transform="matrix(.9998272,0,0,.9998272,0,26.998902)" d="M 313.9996 680.00216 L 330.00215 680.00216 L 330.00215 702.003 L 313.9996 702.003 Z "/>
</clipPath>
<g clip-path="url(#cp106)">
<text fill="#231f20" xml:space="preserve" transform="matrix(.9998272 0 0 .9998272 0 26.998902)" font-size="11" font-family="Arial" font-weight="bold"><tspan y="694.5" x="319.725 322.783">, </tspan></text>
</g>
<clipPath id="cp107">
<path transform="matrix(.9998272,0,0,.9998272,0,26.998902)" d="M 319.99794 680.00216 L 403.99543 680.00216 L 403.99543 702.003 L 319.99794 702.003 Z "/>
</clipPath>
<g clip-path="url(#cp107)">
<text fill="#231f20" xml:space="preserve" transform="matrix(.9998272 0 0 .9998272 0 26.998902)" font-size="11" font-family="Arial" font-weight="bold"><tspan y="694.5" x="325.775 333.71699 336.76399 342.87998 348.985 353.26399 359.37998 362.42698 369.13697 375.24198 378.28898 381.33598 389.27796">Riverside, CA</tspan></text>
</g>
<clipPath id="cp108">
<path transform="matrix(.9998272,0,0,.9998272,0,26.998902)" d="M 158.9975 694.0017 L 362.99815 694.0017 L 362.99815 716.00259 L 158.9975 716.00259 Z "/>
</clipPath>
<g clip-path="url(#cp108)">
<text fill="#231f20" xml:space="preserve" transform="matrix(.9998272 0 0 .9998272 0 26.998902)" font-size="11" font-family="ArialMT"><tspan y="708.5" x="164 170.105 176.221 179.25699 182.29299 185.32898 188.36498 194.48097 197.51697 203.62197 209.72696 213.38996 218.87895 224.98395 231.08895 234.13594 239.62494 245.72994 249.38193 255.49793 261.60295 265.25495 268.29096 274.39598 279.89598 282.93199 289.037 292.073 300.01499 307.33 315.261 318.297 326.23899 332.344 335.38 341.48503 343.91603 346.358 352.463">Left to pursue career as a CAD Detailer</tspan></text>
</g>
</g>
<clipPath id="cp109">
<path transform="matrix(.9998272,0,0,.9998272,0,26.998902)" d="M 148.99854 62.99812 L 150 62.99812 L 150 79.99686 L 148.99854 79.99686 Z "/>
</clipPath>
<g clip-path="url(#cp109)">
<path transform="matrix(.9998272,0,0,.9998272,0,26.998902)" d="M 148.99854 62.99812 L 150 62.99812 L 150 79.99686 L 148.99854 79.99686 Z " fill="#ffffff"/>
</g>
<clipPath id="cp110">
<path transform="matrix(.9998272,0,0,.9998272,0,26.998902)" d="M 148.99854 76.9977 L 150 76.9977 L 150 93.996448 L 148.99854 93.996448 Z "/>
</clipPath>
<g clip-path="url(#cp110)">
<path transform="matrix(.9998272,0,0,.9998272,0,26.998902)" d="M 148.99854 76.9977 L 150 76.9977 L 150 93.996448 L 148.99854 93.996448 Z " fill="#ffffff"/>
</g>
<clipPath id="cp111">
<path transform="matrix(.9998272,0,0,.9998272,0,26.998902)" d="M 0 0 L 616.1127 0 L 616.1127 736.9233 L 0 736.9233 Z "/>
</clipPath>
<g clip-path="url(#cp111)">
<clipPath id="cp112">
<path transform="matrix(.9998272,0,0,.9998272,0,26.998902)" d="M 158.9975 63.99959 L 293.99647 63.99959 L 293.99647 86.00043 L 158.9975 86.00043 Z "/>
</clipPath>
<g clip-path="url(#cp112)">
<text fill="#231f20" xml:space="preserve" transform="matrix(.9998272 0 0 .9998272 0 26.998902)" font-size="11" font-family="ArialMT"><tspan y="78.5" x="164 171.326 177.442 181.105 184.152 187.19899 193.31499 195.74599 198.18799 204.30399 207.35099 210.39798 218.33998 224.45598 230.56098 236.67697 242.79297 248.29297 254.40897 260.52497 263.57197 266.60798 272.10798 278.22398">Portfolio: webdevpat.com</tspan></text>
</g>
</g>
<clipPath id="cp113">
<path transform="matrix(.9998272,0,0,.9998272,0,26.998902)" d="M 144.0017 319.99794 L 155.0021 319.99794 L 155.0021 330.99836 L 144.0017 330.99836 Z "/>
</clipPath>
<g clip-path="url(#cp113)">
<clipPath id="cp114">
<path transform="matrix(.9998272,0,0,.9998272,0,26.998902)" d="M 149.5019 319.99794 L 149.5019 319.99794 C 152.53777 319.99794 155.0021 322.46229 155.0021 325.49815 C 155.0021 328.534 152.53777 330.99836 149.5019 330.99836 C 146.46604 330.99836 144.0017 328.534 144.0017 325.49815 C 144.0017 322.46229 146.46604 319.99794 149.5019 319.99794 Z "/>
</clipPath>
<g clip-path="url(#cp114)">
<path transform="matrix(.9998272,0,0,.9998272,0,26.998902)" d="M 144.0017 319.99794 L 155.0021 319.99794 L 155.0021 330.99836 L 144.0017 330.99836 Z " fill="#ffffff"/>
</g>
</g>
<clipPath id="cp115">
<path transform="matrix(.9998272,0,0,.9998272,0,26.998902)" d="M 0 0 L 616.1127 0 L 616.1127 736.9233 L 0 736.9233 Z "/>
</clipPath>
<g clip-path="url(#cp115)">
<path transform="matrix(.9998272,0,0,.9998272,0,26.998902)" d="M 149.5019 319.99794 L 149.5019 319.99794 C 152.53777 319.99794 155.0021 322.46229 155.0021 325.49815 C 155.0021 328.534 152.53777 330.99836 149.5019 330.99836 C 146.46604 330.99836 144.0017 328.534 144.0017 325.49815 C 144.0017 322.46229 146.46604 319.99794 149.5019 319.99794 Z M 149.5019 320.9994 L 149.5019 320.9994 C 147.01659 320.9994 144.99791 323.01808 144.99791 325.49815 C 144.99791 327.98347 147.01659 330.0021 149.5019 330.0021 C 151.98197 330.0021 154.00064 327.98347 154.00064 325.49815 C 154.00064 323.01808 151.98197 320.9994 149.5019 320.9994 Z " fill="#979797"/>
</g>
<clipPath id="cp116">
<path transform="matrix(.9998272,0,0,.9998272,0,26.998902)" d="M 144.0017 469.99794 L 155.0021 469.99794 L 155.0021 480.99836 L 144.0017 480.99836 Z "/>
</clipPath>
<g clip-path="url(#cp116)">
<clipPath id="cp117">
<path transform="matrix(.9998272,0,0,.9998272,0,26.998902)" d="M 149.5019 469.99794 L 149.5019 469.99794 C 152.53777 469.99794 155.0021 472.46229 155.0021 475.49815 C 155.0021 478.534 152.53777 480.99836 149.5019 480.99836 C 146.46604 480.99836 144.0017 478.534 144.0017 475.49815 C 144.0017 472.46229 146.46604 469.99794 149.5019 469.99794 Z "/>
</clipPath>
<g clip-path="url(#cp117)">
<path transform="matrix(.9998272,0,0,.9998272,0,26.998902)" d="M 144.0017 469.99794 L 155.0021 469.99794 L 155.0021 480.99836 L 144.0017 480.99836 Z " fill="#ffffff"/>
</g>
</g>
<clipPath id="cp118">
<path transform="matrix(.9998272,0,0,.9998272,0,26.998902)" d="M 0 0 L 616.1127 0 L 616.1127 736.9233 L 0 736.9233 Z "/>
</clipPath>
<g clip-path="url(#cp118)">
<path transform="matrix(.9998272,0,0,.9998272,0,26.998902)" d="M 149.5019 469.99794 L 149.5019 469.99794 C 152.53777 469.99794 155.0021 472.46229 155.0021 475.49815 C 155.0021 478.534 152.53777 480.99836 149.5019 480.99836 C 146.46604 480.99836 144.0017 478.534 144.0017 475.49815 C 144.0017 472.46229 146.46604 469.99794 149.5019 469.99794 Z M 149.5019 470.99943 L 149.5019 470.99943 C 147.01659 470.99943 144.99791 473.01808 144.99791 475.49815 C 144.99791 477.98347 147.01659 480.00215 149.5019 480.00215 C 151.98197 480.00215 154.00064 477.98347 154.00064 475.49815 C 154.00064 473.01808 151.98197 470.99943 149.5019 470.99943 Z " fill="#979797"/>
</g>
<clipPath id="cp119">
<path transform="matrix(.9998272,0,0,.9998272,0,26.998902)" d="M 144.0017 672.0009 L 155.0021 672.0009 L 155.0021 683.00137 L 144.0017 683.00137 Z "/>
</clipPath>
<g clip-path="url(#cp119)">
<clipPath id="cp120">
<path transform="matrix(.9998272,0,0,.9998272,0,26.998902)" d="M 149.5019 672.0009 L 149.5019 672.0009 C 152.53777 672.0009 155.0021 674.4652 155.0021 677.5011 C 155.0021 680.537 152.53777 683.0013 149.5019 683.0013 C 146.46604 683.0013 144.0017 680.537 144.0017 677.5011 C 144.0017 674.4652 146.46604 672.0009 149.5019 672.0009 Z "/>
</clipPath>
<g clip-path="url(#cp120)">
<path transform="matrix(.9998272,0,0,.9998272,0,26.998902)" d="M 144.0017 672.0009 L 155.0021 672.0009 L 155.0021 683.00137 L 144.0017 683.00137 Z " fill="#ffffff"/>
</g>
</g>
<clipPath id="cp121">
<path transform="matrix(.9998272,0,0,.9998272,0,26.998902)" d="M 0 0 L 616.1127 0 L 616.1127 736.9233 L 0 736.9233 Z "/>
</clipPath>
<g clip-path="url(#cp121)">
<path transform="matrix(.9998272,0,0,.9998272,0,26.998902)" d="M 149.5019 672.0009 L 149.5019 672.0009 C 152.53777 672.0009 155.0021 674.4652 155.0021 677.5011 C 155.0021 680.537 152.53777 683.0013 149.5019 683.0013 C 146.46604 683.0013 144.0017 680.537 144.0017 677.5011 C 144.0017 674.4652 146.46604 672.0009 149.5019 672.0009 Z M 149.5019 673.0024 L 149.5019 673.0024 C 147.01659 673.0024 144.99791 675.0158 144.99791 677.5011 C 144.99791 679.98117 147.01659 681.9998 149.5019 681.9998 C 151.98197 681.9998 154.00064 679.98117 154.00064 677.5011 C 154.00064 675.0158 151.98197 673.0024 149.5019 673.0024 Z " fill="#979797"/>
</g>
<clipPath id="cp122">
<path transform="matrix(.9998272,0,0,.9998272,0,26.998902)" d="M 144.0017 94.00168 L 155.0021 94.00168 L 155.0021 105.0021 L 144.0017 105.0021 Z "/>
</clipPath>
<g clip-path="url(#cp122)">
<clipPath id="cp123">
<path transform="matrix(.9998272,0,0,.9998272,0,26.998902)" d="M 149.5019 94.00168 L 149.5019 94.00168 C 152.53777 94.00168 155.0021 96.46603 155.0021 99.50189 C 155.0021 102.53776 152.53777 105.00211 149.5019 105.00211 C 146.46604 105.00211 144.0017 102.53776 144.0017 99.50189 C 144.0017 96.46603 146.46604 94.00168 149.5019 94.00168 Z "/>
</clipPath>
<g clip-path="url(#cp123)">
<path transform="matrix(.9998272,0,0,.9998272,0,26.998902)" d="M 144.0017 94.00168 L 155.0021 94.00168 L 155.0021 105.0021 L 144.0017 105.0021 Z " fill="#ffffff"/>
</g>
</g>
<clipPath id="cp124">
<path transform="matrix(.9998272,0,0,.9998272,0,26.998902)" d="M 0 0 L 616.1127 0 L 616.1127 736.9233 L 0 736.9233 Z "/>
</clipPath>
<g clip-path="url(#cp124)">
<path transform="matrix(.9998272,0,0,.9998272,0,26.998902)" d="M 149.5019 94.00168 L 149.5019 94.00168 C 152.53777 94.00168 155.0021 96.46603 155.0021 99.50189 C 155.0021 102.53776 152.53777 105.00211 149.5019 105.00211 C 146.46604 105.00211 144.0017 102.53776 144.0017 99.50189 C 144.0017 96.46603 146.46604 94.00168 149.5019 94.00168 Z M 149.5019 94.99791 L 149.5019 94.99791 C 147.01659 94.99791 144.99791 97.01658 144.99791 99.50189 C 144.99791 101.98197 147.01659 104.00064 149.5019 104.00064 C 151.98197 104.00064 154.00064 101.98197 154.00064 99.50189 C 154.00064 97.01658 151.98197 94.99791 149.5019 94.99791 Z " fill="#979797"/>
</g>
<clipPath id="cp125">
<path transform="matrix(.9998272,0,0,.9998272,0,26.998902)" d="M 144.0017 159.99897 L 155.0021 159.99897 L 155.0021 170.99939 L 144.0017 170.99939 Z "/>
</clipPath>
<g clip-path="url(#cp125)">
<clipPath id="cp126">
<path transform="matrix(.9998272,0,0,.9998272,0,26.998902)" d="M 149.5019 159.99897 L 149.5019 159.99897 C 152.53777 159.99897 155.0021 162.4633 155.0021 165.49918 C 155.0021 168.53504 152.53777 170.99938 149.5019 170.99938 C 146.46604 170.99938 144.0017 168.53504 144.0017 165.49918 C 144.0017 162.4633 146.46604 159.99897 149.5019 159.99897 Z "/>
</clipPath>
<g clip-path="url(#cp126)">
<path transform="matrix(.9998272,0,0,.9998272,0,26.998902)" d="M 144.0017 159.99897 L 155.0021 159.99897 L 155.0021 170.99939 L 144.0017 170.99939 Z " fill="#ffffff"/>
</g>
</g>
<clipPath id="cp127">
<path transform="matrix(.9998272,0,0,.9998272,0,26.998902)" d="M 0 0 L 616.1127 0 L 616.1127 736.9233 L 0 736.9233 Z "/>
</clipPath>
<g clip-path="url(#cp127)">
<path transform="matrix(.9998272,0,0,.9998272,0,26.998902)" d="M 149.5019 159.99897 L 149.5019 159.99897 C 152.53777 159.99897 155.0021 162.4633 155.0021 165.49918 C 155.0021 168.53504 152.53777 170.99938 149.5019 170.99938 C 146.46604 170.99938 144.0017 168.53504 144.0017 165.49918 C 144.0017 162.4633 146.46604 159.99897 149.5019 159.99897 Z M 149.5019 161.00043 L 149.5019 161.00043 C 147.01659 161.00043 144.99791 163.01386 144.99791 165.49918 C 144.99791 167.9845 147.01659 169.99793 149.5019 169.99793 C 151.98197 169.99793 154.00064 167.9845 154.00064 165.49918 C 154.00064 163.01386 151.98197 161.00043 149.5019 161.00043 Z " fill="#979797"/>
</g>
<clipPath id="cp128">
<path transform="matrix(.9998272,0,0,.9998272,0,26.998902)" d="M 144.0017 254.00066 L 155.0021 254.00066 L 155.0021 265.00108 L 144.0017 265.00108 Z "/>
</clipPath>
<g clip-path="url(#cp128)">
<clipPath id="cp129">
<path transform="matrix(.9998272,0,0,.9998272,0,26.998902)" d="M 149.5019 254.00066 L 149.5019 254.00066 C 152.53777 254.00066 155.0021 256.465 155.0021 259.50086 C 155.0021 262.5367 152.53777 265.00108 149.5019 265.00108 C 146.46604 265.00108 144.0017 262.5367 144.0017 259.50086 C 144.0017 256.465 146.46604 254.00066 149.5019 254.00066 Z "/>
</clipPath>
<g clip-path="url(#cp129)">
<path transform="matrix(.9998272,0,0,.9998272,0,26.998902)" d="M 144.0017 254.00066 L 155.0021 254.00066 L 155.0021 265.00108 L 144.0017 265.00108 Z " fill="#ffffff"/>
</g>
</g>
<clipPath id="cp130">
<path transform="matrix(.9998272,0,0,.9998272,0,26.998902)" d="M 0 0 L 616.1127 0 L 616.1127 736.9233 L 0 736.9233 Z "/>
</clipPath>
<g clip-path="url(#cp130)">
<path transform="matrix(.9998272,0,0,.9998272,0,26.998902)" d="M 149.5019 254.00066 L 149.5019 254.00066 C 152.53777 254.00066 155.0021 256.465 155.0021 259.50086 C 155.0021 262.5367 152.53777 265.00108 149.5019 265.00108 C 146.46604 265.00108 144.0017 262.5367 144.0017 259.50086 C 144.0017 256.465 146.46604 254.00066 149.5019 254.00066 Z M 149.5019 255.00212 L 149.5019 255.00212 C 147.01659 255.00212 144.99791 257.01554 144.99791 259.50086 C 144.99791 261.98619 147.01659 263.9996 149.5019 263.9996 C 151.98197 263.9996 154.00064 261.98619 154.00064 259.50086 C 154.00064 257.01554 151.98197 255.00212 149.5019 255.00212 Z " fill="#979797"/>
</g>
<clipPath id="cp131">
<path transform="matrix(.9998272,0,0,.9998272,0,26.998902)" d="M 144.0017 633.99758 L 155.0021 633.99758 L 155.0021 644.998 L 144.0017 644.998 Z "/>
</clipPath>
<g clip-path="url(#cp131)">
<clipPath id="cp132">
<path transform="matrix(.9998272,0,0,.9998272,0,26.998902)" d="M 149.5019 633.99758 L 149.5019 633.99758 C 152.53777 633.99758 155.0021 636.46188 155.0021 639.49777 C 155.0021 642.5336 152.53777 644.9979 149.5019 644.9979 C 146.46604 644.9979 144.0017 642.5336 144.0017 639.49777 C 144.0017 636.46188 146.46604 633.99758 149.5019 633.99758 Z "/>
</clipPath>
<g clip-path="url(#cp132)">
<path transform="matrix(.9998272,0,0,.9998272,0,26.998902)" d="M 144.0017 633.99758 L 155.0021 633.99758 L 155.0021 644.998 L 144.0017 644.998 Z " fill="#ffffff"/>
</g>
</g>
<clipPath id="cp133">
<path transform="matrix(.9998272,0,0,.9998272,0,26.998902)" d="M 0 0 L 616.1127 0 L 616.1127 736.9233 L 0 736.9233 Z "/>
</clipPath>
<g clip-path="url(#cp133)">
<path transform="matrix(.9998272,0,0,.9998272,0,26.998902)" d="M 149.5019 633.99758 L 149.5019 633.99758 C 152.53777 633.99758 155.0021 636.46188 155.0021 639.49777 C 155.0021 642.5336 152.53777 644.9979 149.5019 644.9979 C 146.46604 644.9979 144.0017 642.5336 144.0017 639.49777 C 144.0017 636.46188 146.46604 633.99758 149.5019 633.99758 Z M 149.5019 634.999 L 149.5019 634.999 C 147.01659 634.999 144.99791 637.01766 144.99791 639.49777 C 144.99791 641.98306 147.01659 644.0017 149.5019 644.0017 C 151.98197 644.0017 154.00064 641.98306 154.00064 639.49777 C 154.00064 637.01766 151.98197 634.999 149.5019 634.999 Z " fill="#979797"/>
</g>
</g>
</g>
</g>
</svg>
