<?xml version="1.0" standalone="no"?>
<!DOCTYPE svg PUBLIC "-//W3C//DTD SVG 20010904//EN"
 "http://www.w3.org/TR/2001/REC-SVG-20010904/DTD/svg10.dtd">
<svg version="1.0" xmlns="http://www.w3.org/2000/svg"
 width="128.000000pt" height="128.000000pt" viewBox="0 0 128.000000 128.000000"
 preserveAspectRatio="xMidYMid meet">
<metadata>
Created by potrace 1.16, written by Peter Selinger 2001-2019
</metadata>
<g transform="translate(0.000000,128.000000) scale(0.100000,-0.100000)"
fill="#000000" stroke="none">
<path d="M740 1254 c-19 -8 -42 -22 -51 -30 -12 -11 -25 -13 -41 -8 -13 4 -75
9 -138 10 -63 2 -142 6 -176 9 -50 6 -67 4 -101 -14 -47 -23 -78 -68 -89 -125
-4 -22 -20 -60 -36 -85 -45 -72 -70 -149 -74 -236 -3 -44 -10 -97 -16 -117
-10 -32 -9 -41 7 -58 9 -10 28 -49 40 -85 80 -228 296 -425 525 -479 86 -21
241 -20 311 0 218 64 349 242 349 474 0 187 -81 370 -224 510 -40 38 -46 50
-46 85 -1 117 -129 197 -240 149z m120 -39 c31 -16 47 -39 61 -88 12 -42 -19
-110 -60 -131 -52 -28 -106 -21 -149 18 -34 32 -37 38 -37 91 0 53 3 59 37 91
30 27 46 34 78 34 23 0 54 -7 70 -15z m-505 -19 c43 -18 75 -69 75 -118 0 -35
-3 -39 -52 -63 -29 -15 -63 -36 -76 -48 -21 -20 -24 -20 -57 -4 -69 33 -94
116 -53 177 24 36 78 70 111 70 10 0 33 -6 52 -14z m389 -616 c43 -11 101 -33
128 -48 l49 -28 -21 -27 c-31 -40 -23 -68 28 -92 l42 -21 -27 -26 c-16 -15
-41 -30 -58 -34 -16 -4 -54 -20 -83 -37 -44 -25 -68 -30 -141 -35 -109 -6
-200 18 -280 75 -47 34 -55 46 -76 106 -13 37 -36 84 -52 104 -44 55 -48 62
-41 68 13 13 180 24 313 20 96 -3 165 -11 219 -25z m325 -304 c12 -18 21 -43
21 -55 0 -36 -107 -99 -210 -124 -24 -6 -25 -4 -25 33 0 32 3 40 23 45 12 3
32 15 43 26 18 18 25 19 52 9 28 -9 34 -8 50 11 16 19 16 24 3 44 -11 17 -12
25 -3 34 17 17 24 14 46 -23z"/>
</g>
</svg>
